<svg width="12" height="10" viewBox="0 0 12 10" fill="none" xmlns="http://www.w3.org/2000/svg">
<path d="M9.55038 3.69547H7.93618V2.40093C7.93618 1.57601 7.10226 0.907227 6.07365 0.907227C5.04503 0.907227 4.21111 1.57601 4.21111 2.40093V3.69547H2.59691C1.56829 3.69547 0.734375 4.36425 0.734375 5.18917C0.734375 6.01409 1.56829 6.68287 2.59691 6.68287H4.21111V7.97741C4.21111 8.80233 5.04503 9.47111 6.07365 9.47111C7.10226 9.47111 7.93618 8.80233 7.93618 7.97741V6.68287H9.55038C10.579 6.68287 11.4129 6.01409 11.4129 5.18917C11.4129 4.36425 10.579 3.69547 9.55038 3.69547Z" fill="#FABE2C"/>
</svg>
