<svg width="12" height="10" viewBox="0 0 12 10" fill="none" xmlns="http://www.w3.org/2000/svg">
<path d="M9.31601 3.45328H7.70181V2.15874C7.70181 1.33382 6.86789 0.665039 5.83927 0.665039C4.81066 0.665039 3.97674 1.33382 3.97674 2.15874V3.45328H2.36254C1.33392 3.45328 0.5 4.12206 0.5 4.94698C0.5 5.7719 1.33392 6.44068 2.36254 6.44068H3.97674V7.73522C3.97674 8.56015 4.81066 9.22893 5.83927 9.22893C6.86789 9.22893 7.70181 8.56015 7.70181 7.73522V6.44068H9.31601C10.3446 6.44068 11.1785 5.7719 11.1785 4.94698C11.1785 4.12206 10.3446 3.45328 9.31601 3.45328Z" fill="#FABE2C"/>
</svg>
