<svg width="36" height="37" viewBox="0 0 36 37" fill="none" xmlns="http://www.w3.org/2000/svg">
<path d="M29.2493 19.5215H28.5V26.2715H29.4998C30.231 26.2715 30.8558 25.7442 30.9787 25.0235L31.4685 22.1495C31.7017 20.7755 30.6428 19.5215 29.2493 19.5215Z" fill="url(#paint0_linear_3087_12368)"/>
<path d="M6.75157 19.5215H7.50082V26.2715H6.50107C5.76982 26.2715 5.14507 25.7442 5.02207 25.0235L4.53232 22.1495C4.29907 20.7755 5.35807 19.5215 6.75157 19.5215Z" fill="url(#paint1_linear_3087_12368)"/>
<path d="M18 5.27148C12.4485 5.27148 6.75 7.52148 6.75 19.5215C6.75 20.4822 6.75 23.9615 6.75 24.9875C6.75 29.2715 13.5 34.5215 18 34.5215C22.5 34.5215 29.25 29.2715 29.25 24.9875C29.25 23.9615 29.25 20.4822 29.25 19.5215C29.25 7.52148 23.5515 5.27148 18 5.27148Z" fill="#FFCF54"/>
<path d="M18 3.77148C12.0135 3.77148 10.5 6.02148 10.5 6.02148C8.06625 6.38073 5.25 9.44598 5.25 13.5215C5.25 15.7955 5.73975 16.8507 6.75 22.5215C7.5 13.5215 8.25 10.5215 9.75 10.5215C12 10.5215 12 12.0215 18.5835 12.0215C22.3507 12.0215 24 10.5215 25.5 10.5215C29.25 10.5215 29.25 21.1025 29.25 22.5215C29.8545 16.9677 30 15.5082 30 13.5215C30 8.80548 26.5373 3.77148 18 3.77148Z" fill="url(#paint2_radial_3087_12368)"/>
<path d="M18 31.5215H24.75C27.6495 31.5215 30 29.171 30 26.2715V12.0215C30 8.29323 26.9783 5.27148 23.25 5.27148H18.75" stroke="#5E6770" stroke-width="2" stroke-linecap="round"/>
<path d="M18 32.2715C19.2426 32.2715 20.25 31.2641 20.25 30.0215C20.25 28.7788 19.2426 27.7715 18 27.7715C16.7574 27.7715 15.75 28.7788 15.75 30.0215C15.75 31.2641 16.7574 32.2715 18 32.2715Z" fill="url(#paint3_linear_3087_12368)"/>
<path d="M30.75 26.2715H29.25V19.5215H30.75C31.5788 19.5215 32.25 20.1927 32.25 21.0215V24.7715C32.25 25.6002 31.5788 26.2715 30.75 26.2715Z" fill="url(#paint4_linear_3087_12368)"/>
<path d="M17.9993 3.02148C12.0128 3.02148 10.4993 6.02148 10.4993 6.02148C10.4393 7.61523 11.2493 9.02148 11.2493 9.02148C11.2493 9.02148 12.3443 11.2715 18.5828 11.2715C22.35 11.2715 27.7493 9.02373 27.7493 3.02148C27.7493 3.02148 26.5365 3.02148 17.9993 3.02148Z" fill="url(#paint5_radial_3087_12368)"/>
<defs>
<linearGradient id="paint0_linear_3087_12368" x1="29.2508" y1="22.8965" x2="31.146" y2="22.8965" gradientUnits="userSpaceOnUse">
<stop stop-color="#C48F0C"/>
<stop offset="0.251" stop-color="#D19B16"/>
<stop offset="0.619" stop-color="#DCA51F"/>
<stop offset="1" stop-color="#E0A922"/>
</linearGradient>
<linearGradient id="paint1_linear_3087_12368" x1="6.75082" y1="22.8965" x2="4.85482" y2="22.8965" gradientUnits="userSpaceOnUse">
<stop stop-color="#C48F0C"/>
<stop offset="0.251" stop-color="#D19B16"/>
<stop offset="0.619" stop-color="#DCA51F"/>
<stop offset="1" stop-color="#E0A922"/>
</linearGradient>
<radialGradient id="paint2_radial_3087_12368" cx="0" cy="0" r="1" gradientUnits="userSpaceOnUse" gradientTransform="translate(7.0395 5.22123) scale(32.0737)">
<stop stop-color="#C26715"/>
<stop offset="0.508" stop-color="#B85515"/>
<stop offset="1" stop-color="#AD3F16"/>
</radialGradient>
<linearGradient id="paint3_linear_3087_12368" x1="16.9027" y1="27.8907" x2="19.0282" y2="32.018" gradientUnits="userSpaceOnUse">
<stop stop-color="#8795A1"/>
<stop offset="1" stop-color="#6D7882"/>
</linearGradient>
<linearGradient id="paint4_linear_3087_12368" x1="28.728" y1="19.5395" x2="31.9658" y2="25.8252" gradientUnits="userSpaceOnUse">
<stop stop-color="#8795A1"/>
<stop offset="1" stop-color="#6D7882"/>
</linearGradient>
<radialGradient id="paint5_radial_3087_12368" cx="0" cy="0" r="1" gradientUnits="userSpaceOnUse" gradientTransform="translate(15.6233 7.65498) scale(40.4857)">
<stop stop-color="#C26715"/>
<stop offset="0.508" stop-color="#B85515"/>
<stop offset="1" stop-color="#AD3F16"/>
</radialGradient>
</defs>
</svg>
