<svg width="16" height="16" viewBox="0 0 16 16" fill="none" xmlns="http://www.w3.org/2000/svg">
<path d="M14.0137 8C14.0137 11.4516 11.2152 14.25 7.76367 14.25C4.31211 14.25 1.51367 11.4516 1.51367 8C1.51367 4.54844 4.31211 1.75 7.76367 1.75C11.2152 1.75 14.0137 4.54844 14.0137 8Z" fill="url(#paint0_linear_3087_12554)"/>
<path opacity="0.05" d="M10.3173 5.55414L7.13859 8.73289L5.52234 7.11664C5.27828 6.87258 4.88266 6.87258 4.63859 7.11664L4.19672 7.55852C3.95266 7.80258 3.95266 8.1982 4.19672 8.44227L6.69672 10.9423C6.94078 11.1863 7.33641 11.1863 7.58047 10.9423L11.643 6.87977C11.887 6.6357 11.887 6.24008 11.643 5.99602L11.2011 5.55414C10.957 5.31008 10.5614 5.31008 10.3173 5.55414Z" fill="black"/>
<path opacity="0.07" d="M6.80727 10.8319L4.30727 8.33188C4.12414 8.14875 4.12414 7.85188 4.30727 7.66906L4.74914 7.22719C4.93227 7.04406 5.22914 7.04406 5.41195 7.22719L7.13883 8.95375L10.4279 5.66469C10.611 5.48156 10.9079 5.48156 11.0907 5.66469L11.5326 6.10656C11.7157 6.28969 11.7157 6.58656 11.5326 6.76938L7.47008 10.8319C7.28727 11.0147 6.99039 11.0147 6.80727 10.8319Z" fill="black"/>
<path d="M6.91781 10.7205L4.41781 8.22051C4.29562 8.09832 4.29562 7.90051 4.41781 7.77863L4.85969 7.33676C4.98187 7.21457 5.17969 7.21457 5.30156 7.33676L7.13875 9.17395L10.5384 5.77426C10.6606 5.65207 10.8584 5.65207 10.9803 5.77426L11.4222 6.21613C11.5444 6.33832 11.5444 6.53613 11.4222 6.65801L7.35969 10.7205C7.23781 10.8427 7.03969 10.8427 6.91781 10.7205Z" fill="white"/>
<defs>
<linearGradient id="paint0_linear_3087_12554" x1="7.76367" y1="36.2965" x2="7.77667" y2="-2.62052" gradientUnits="userSpaceOnUse">
<stop offset="0.0890538" stop-color="#0052CC"/>
<stop offset="0.659377" stop-color="#1EB28F"/>
</linearGradient>
</defs>
</svg>
