<svg width="25" height="24" viewBox="0 0 25 24" fill="none" xmlns="http://www.w3.org/2000/svg">
<path d="M20.097 9.08573C19.737 8.48973 19.2895 7.74723 19.2115 7.51323C18.0845 4.13223 15.3985 2.08673 12 1.99023V8.38823C12.872 8.69823 13.5 9.52223 13.5 10.5002C13.5 11.4782 12.872 12.3027 12 12.6122V13.0002C12 13.8272 12.673 14.5002 13.5 14.5002H14.7555C14.9835 14.1982 15.342 14.0002 15.75 14.0002C16.4405 14.0002 17 14.5597 17 15.2502C17 15.9407 16.4405 16.5002 15.75 16.5002C15.3425 16.5002 14.984 16.3022 14.7555 16.0002H13.5C11.8455 16.0002 10.5 14.6547 10.5 13.0002V12.6122C9.628 12.3022 9 11.4782 9 10.5002C9 9.52223 9.628 8.69773 10.5 8.38823V2.06073C6.323 2.54723 3.5 5.46523 3.5 9.50023C3.5 11.9387 4.19 13.1387 4.8575 14.2992C5.665 15.7037 6.5 17.1562 6.5 21.2502C6.5 21.6647 6.8355 22.0002 7.25 22.0002H15.25C15.6645 22.0002 16 21.6647 16 21.2502V19.2307C16 19.0927 16.112 18.9807 16.25 18.9807C18.042 18.9807 19.5 17.5227 19.5 15.7307V13.5567C21.5 12.9032 21.5 12.3012 21.5 12.0002C21.5 11.4662 21.0725 10.7022 20.097 9.08573Z" fill="#FEFEFE"/>
</svg>
