<svg width="23" height="18" viewBox="0 0 23 18" fill="none" xmlns="http://www.w3.org/2000/svg">
<path d="M11.5 0.00585938C10.9829 0.00585938 10.4661 0.117797 9.98633 0.341797L0.932617 4.56934C0.668617 4.69234 0.5 4.95802 0.5 5.24902C0.5 5.54002 0.668617 5.80571 0.932617 5.92871L9.98633 10.1562C10.4748 10.3842 10.987 10.498 11.5 10.498C12.013 10.498 12.5257 10.3842 13.0137 10.1562L16.5 8.52832V14.752C16.2909 14.9096 16.1366 15.1289 16.0589 15.379C15.9812 15.6291 15.984 15.8972 16.0668 16.1456C16.1497 16.394 16.3085 16.6101 16.5208 16.7634C16.7331 16.9167 16.9881 16.9995 17.25 17C17.5121 16.9997 17.7675 16.9171 17.98 16.7637C18.1926 16.6104 18.3516 16.3941 18.4345 16.1454C18.5174 15.8968 18.5201 15.6284 18.4421 15.3781C18.3641 15.1279 18.2095 14.9085 18 14.751V7.91797C18.029 7.73082 17.986 7.53964 17.8799 7.38281C17.8682 7.36537 17.8558 7.34843 17.8428 7.33203C17.7454 7.20568 17.6103 7.11365 17.457 7.06934L17.4551 7.06836L12.6338 4.83301C12.5502 4.74089 12.5 4.62284 12.5 4.49902C12.5 4.42852 12.5154 4.35754 12.5469 4.29004C12.6624 4.03904 12.9609 3.93088 13.2109 4.04688L18.4287 6.46582C18.7772 6.62732 19 6.97683 19 7.36133L22.0674 5.92871C22.0774 5.92421 22.0804 5.91954 22.0889 5.91504C22.2329 5.84154 22.3562 5.72441 22.4297 5.56641C22.6047 5.19091 22.4424 4.74434 22.0674 4.56934L13.0137 0.341797C12.5339 0.117797 12.0171 0.00585933 11.5 0.00585938ZM4.5 9.19824V14.2646C4.5 15.3391 5.12198 16.3183 6.08398 16.7578C7.91348 17.5933 9.67294 18 11.4609 18H11.5H11.5029C12.8619 17.995 14.2617 17.7516 15.6162 17.2891C15.2367 16.8866 15 16.347 15 15.75C15 15.2185 15.192 14.7366 15.5 14.3516V10.5986L13.4365 11.5615C12.8175 11.851 12.166 11.998 11.5 11.998C10.834 11.998 10.183 11.851 9.56347 11.5615L4.5 9.19824Z" fill="#FEFEFE"/>
</svg>
