<svg width="23" height="18" viewBox="0 0 23 18" fill="none" xmlns="http://www.w3.org/2000/svg">
<path d="M1.25092 7.50059e-05C1.15153 -0.00133053 1.05286 0.0170303 0.960634 0.0540906C0.868408 0.0911509 0.784467 0.146172 0.71369 0.215955C0.642912 0.285738 0.58671 0.368893 0.54835 0.460585C0.509989 0.552278 0.490234 0.650681 0.490234 0.750075C0.490234 0.849469 0.509989 0.947871 0.54835 1.03956C0.58671 1.13126 0.642912 1.21441 0.71369 1.28419C0.784467 1.35398 0.868408 1.409 0.960634 1.44606C1.05286 1.48312 1.15153 1.50148 1.25092 1.50007H2.62885C2.99281 1.50007 3.29621 1.75154 3.36517 2.10945L3.51263 2.88191C3.51315 2.88484 3.51306 2.88777 3.51361 2.8907L3.91596 5.00007H8.00092C8.27692 5.00007 8.50092 5.22407 8.50092 5.50007C8.50092 5.77607 8.27692 6.00007 8.00092 6.00007H1.25092C1.15153 5.99867 1.05286 6.01703 0.960634 6.05409C0.868408 6.09115 0.784467 6.14617 0.71369 6.21595C0.642912 6.28574 0.58671 6.36889 0.54835 6.46058C0.509989 6.55228 0.490234 6.65068 0.490234 6.75007C0.490234 6.84947 0.509989 6.94787 0.54835 7.03956C0.58671 7.13126 0.642912 7.21441 0.71369 7.28419C0.784467 7.35398 0.868408 7.409 0.960634 7.44606C1.05286 7.48312 1.15153 7.50148 1.25092 7.50007H8.00092H9.00092C9.27692 7.50007 9.50092 7.72407 9.50092 8.00007C9.50092 8.27607 9.27692 8.50007 9.00092 8.50007H2.25092C2.15153 8.49867 2.05286 8.51703 1.96063 8.55409C1.86841 8.59115 1.78447 8.64617 1.71369 8.71595C1.64291 8.78574 1.58671 8.86889 1.54835 8.96058C1.50999 9.05228 1.49023 9.15068 1.49023 9.25007C1.49023 9.34947 1.50999 9.44787 1.54835 9.53956C1.58671 9.63126 1.64291 9.71441 1.71369 9.78419C1.78447 9.85398 1.86841 9.909 1.96063 9.94606C2.05286 9.98312 2.15153 10.0015 2.25092 10.0001H9.00092H9.50092C9.77692 10.0001 10.0009 10.2241 10.0009 10.5001C10.0009 10.7761 9.77692 11.0001 9.50092 11.0001H5.05853L5.12689 11.3585C5.41889 12.8895 6.76175 14.0001 8.32025 14.0001H17.6816C19.2401 14.0001 20.5834 12.8895 20.8749 11.3585L22.4882 2.88972C22.5297 2.67022 22.4715 2.44406 22.329 2.27156C22.1865 2.09956 21.9744 2.00007 21.7509 2.00007H4.87103L4.83881 1.82918C4.63724 0.772841 3.7044 7.50059e-05 2.62885 7.50059e-05H1.25092ZM9.50092 15.0001C9.10309 15.0001 8.72156 15.1581 8.44026 15.4394C8.15895 15.7207 8.00092 16.1022 8.00092 16.5001C8.00092 16.8979 8.15895 17.2794 8.44026 17.5607C8.72156 17.842 9.10309 18.0001 9.50092 18.0001C9.89874 18.0001 10.2803 17.842 10.5616 17.5607C10.8429 17.2794 11.0009 16.8979 11.0009 16.5001C11.0009 16.1022 10.8429 15.7207 10.5616 15.4394C10.2803 15.1581 9.89874 15.0001 9.50092 15.0001ZM16.5009 15.0001C16.1031 15.0001 15.7216 15.1581 15.4403 15.4394C15.159 15.7207 15.0009 16.1022 15.0009 16.5001C15.0009 16.8979 15.159 17.2794 15.4403 17.5607C15.7216 17.842 16.1031 18.0001 16.5009 18.0001C16.8987 18.0001 17.2803 17.842 17.5616 17.5607C17.8429 17.2794 18.0009 16.8979 18.0009 16.5001C18.0009 16.1022 17.8429 15.7207 17.5616 15.4394C17.2803 15.1581 16.8987 15.0001 16.5009 15.0001Z" fill="#FEFEFE"/>
</svg>
