<svg width="24" height="23" viewBox="0 0 24 23" fill="none" xmlns="http://www.w3.org/2000/svg">
<path d="M8.4069 2.39648C5.36851 2.39648 2.89648 4.86851 2.89648 7.9069V15.0944C2.89648 18.1328 5.36851 20.6048 8.4069 20.6048H15.5944C18.6328 20.6048 21.1048 18.1328 21.1048 15.0944V7.9069C21.1048 4.86851 18.6328 2.39648 15.5944 2.39648H8.4069ZM16.7923 5.75065C17.3218 5.75065 17.7507 6.17951 17.7507 6.70898C17.7507 7.23798 17.3218 7.66732 16.7923 7.66732C16.2628 7.66732 15.834 7.23798 15.834 6.70898C15.834 6.17951 16.2628 5.75065 16.7923 5.75065ZM12.0007 6.70898C14.6428 6.70898 16.7923 8.85853 16.7923 11.5007C16.7923 14.1428 14.6428 16.2923 12.0007 16.2923C9.35853 16.2923 7.20898 14.1428 7.20898 11.5007C7.20898 8.85853 9.35853 6.70898 12.0007 6.70898ZM12.0007 8.14648C11.5602 8.14648 11.124 8.23324 10.7171 8.4018C10.3101 8.57037 9.94036 8.81743 9.6289 9.1289C9.31743 9.44036 9.07037 9.81012 8.9018 10.2171C8.73324 10.624 8.64648 11.0602 8.64648 11.5007C8.64648 11.9411 8.73324 12.3773 8.9018 12.7842C9.07037 13.1912 9.31743 13.5609 9.6289 13.8724C9.94036 14.1839 10.3101 14.4309 10.7171 14.5995C11.124 14.7681 11.5602 14.8548 12.0007 14.8548C12.4411 14.8548 12.8773 14.7681 13.2842 14.5995C13.6912 14.4309 14.0609 14.1839 14.3724 13.8724C14.6839 13.5609 14.9309 13.1912 15.0995 12.7842C15.2681 12.3773 15.3548 11.9411 15.3548 11.5007C15.3548 11.0602 15.2681 10.624 15.0995 10.2171C14.9309 9.81012 14.6839 9.44036 14.3724 9.1289C14.0609 8.81743 13.6912 8.57037 13.2842 8.4018C12.8773 8.23324 12.4411 8.14648 12.0007 8.14648Z" fill="#1EB28F"/>
</svg>
