<svg width="24" height="23" viewBox="0 0 24 23" fill="none" xmlns="http://www.w3.org/2000/svg">
<path d="M3.00464 7.54627C3.00373 6.10061 3.01102 4.65494 3.00008 3.20836C2.99643 2.74535 3.11951 2.35539 3.54345 2.1353C3.95463 1.9216 4.37037 1.9837 4.74781 2.24398C5.37324 2.67503 6.00596 3.09695 6.60951 3.55722C6.86022 3.74809 7.01977 3.7417 7.2787 3.57275C12.1773 0.373654 18.6567 2.23302 21.1247 7.53623C23.8653 13.4239 19.862 20.3837 13.4035 20.96C7.74549 21.465 3.01193 17.1262 3.00464 11.4276C3.00281 10.1335 3.00464 8.84034 3.00464 7.54627ZM11.2811 11.9746C10.631 11.3125 10.1186 10.7737 9.58713 10.2531C8.82403 9.50701 7.70446 9.50153 6.96963 10.2248C6.24209 10.9408 6.22477 12.0796 6.96781 12.8467C7.92965 13.8404 8.90608 14.8212 9.89802 15.7856C10.6912 16.5563 11.7615 16.5518 12.5483 15.7719C14.3727 13.9636 16.1878 12.1454 17.9939 10.318C18.7734 9.52984 18.7698 8.39742 18.0249 7.66225C17.2837 6.93075 16.1505 6.94992 15.3737 7.72162C14.1119 8.9755 12.8565 10.2358 11.6047 11.4997C11.4889 11.6166 11.4151 11.7755 11.282 11.9755L11.2811 11.9746Z" fill="#1EB28F"/>
</svg>
