<svg width="24" height="23" viewBox="0 0 24 23" fill="none" xmlns="http://www.w3.org/2000/svg">
<path d="M11.9993 1.91602C6.71414 1.91602 2.41602 6.21414 2.41602 11.4993C2.41602 13.0279 2.78497 14.5373 3.48456 15.8933L2.45914 19.5637C2.34414 19.9806 2.46393 20.4262 2.76581 20.7329C2.99581 20.9581 3.30247 21.0827 3.61393 21.0827C3.72414 21.0827 3.82956 21.0683 3.93497 21.0396L7.60539 20.0141C8.96143 20.7137 10.4756 21.0827 11.9993 21.0827C17.2846 21.0827 21.5827 16.7846 21.5827 11.4993C21.5827 6.21414 17.2846 1.91602 11.9993 1.91602ZM16.9635 15.0308C16.7527 15.6202 15.7177 16.1904 15.2529 16.2335C14.7881 16.2766 14.3521 16.4443 12.215 15.601C9.63706 14.5852 8.00789 11.945 7.88331 11.7725C7.75393 11.6048 6.84831 10.4021 6.84831 9.15143C6.84831 7.9056 7.50477 7.29227 7.73477 7.03831C7.96956 6.78435 8.24268 6.72206 8.41039 6.72206C8.58289 6.72206 8.7506 6.72206 8.89914 6.72685C9.07643 6.73643 9.27768 6.74602 9.46935 7.16768C9.69456 7.66602 10.1881 8.92143 10.2504 9.05081C10.3127 9.17539 10.3558 9.32393 10.2696 9.49164C10.1881 9.65935 10.145 9.76477 10.0156 9.91331C9.89102 10.0618 9.75206 10.2439 9.63706 10.3589C9.51247 10.4835 9.37831 10.6225 9.52685 10.8764C9.67539 11.1304 10.1833 11.9593 10.9356 12.6302C11.9035 13.4927 12.7181 13.761 12.9721 13.8904C13.226 14.015 13.3746 13.9958 13.5231 13.8233C13.6716 13.6556 14.1556 13.0854 14.3281 12.8314C14.4958 12.5775 14.6635 12.6206 14.8983 12.7068C15.1283 12.7883 16.3741 13.4016 16.6281 13.531C16.8821 13.6556 17.0498 13.7179 17.1121 13.8233C17.1743 13.9287 17.1743 14.4366 16.9635 15.0308Z" fill="#1EB28F"/>
</svg>
