<svg width="24" height="23" viewBox="0 0 24 23" fill="none" xmlns="http://www.w3.org/2000/svg">
<g clip-path="url(#clip0_2885_13405)">
<path d="M23.4524 9.18232L22.8432 9.64783C22.7633 9.70246 22.6904 9.76183 22.6222 9.82358C20.1008 11.8495 18.3016 14.7114 15.5027 16.3977C13.8375 17.4 11.7795 17.913 9.93087 17.3169C9.81092 17.2789 9.67921 17.2361 9.56632 17.2884C9.44637 17.343 9.39227 17.4808 9.34994 17.6066C9.08416 18.4141 8.90306 19.2525 8.81369 20.1004C7.04264 19.7204 5.57736 18.1671 5.29277 16.3597C5.25044 16.0961 5.23162 15.823 5.11637 15.5831C4.97526 15.2862 4.71183 15.0748 4.4884 14.8373C3.25361 13.5239 3.303 11.3436 4.21086 9.78083C5.11873 8.21805 6.70161 7.17778 8.32447 6.41063C9.60395 5.805 10.9752 5.32761 12.3887 5.30623C13.8022 5.28486 15.2722 5.77175 16.2107 6.83814C16.4905 7.1564 16.7304 7.56253 16.6716 7.98529C16.6081 8.4318 16.2365 8.75956 15.8696 9.01369C14.5831 9.89721 13.0449 10.3627 11.4949 10.5147C10.6576 10.5979 9.76388 10.5789 9.04888 10.13C8.33388 9.68346 7.90582 8.68118 8.32918 7.94729C7.36487 8.21092 6.5746 9.03744 6.34646 10.0183C6.11832 10.9992 6.46406 12.0941 7.21199 12.7639C6.38174 13.6427 5.98896 14.9252 6.18417 16.1222C6.37939 17.3216 7.16024 18.407 8.22569 18.9699C8.16219 17.4499 9.11003 16.0391 10.3001 15.1081C11.4926 14.1771 12.9226 13.6213 14.2844 12.9705C15.6485 12.3221 17.0103 11.5289 17.8759 10.282C18.612 9.2227 18.9295 7.90929 18.9554 6.61726C18.9907 4.89535 18.4944 3.10931 17.3279 1.85053C16.1072 0.532381 14.2444 -0.0756324 12.4569 0.00749443C10.6694 0.0906212 8.95245 0.812637 7.46365 1.81728C5.19164 3.34919 3.38767 5.54137 2.16229 8.00667C1.32028 9.70008 0.739342 11.5336 0.55824 13.4194C0.419473 14.8516 0.513552 16.3265 1.00512 17.6779C1.87535 20.0719 3.98978 21.9197 6.41232 22.6346C9.19235 23.454 12.1018 22.8531 14.5008 21.2713C17.175 19.5067 18.859 16.7635 20.7617 14.2531C21.1827 13.6997 22.4269 12.3791 22.8809 11.8424C23.737 10.9209 23.4524 9.18232 23.4524 9.18232Z" fill="#1EB28F"/>
</g>
<defs>
<clipPath id="clip0_2885_13405">
<rect width="23" height="23" fill="white" transform="translate(0.5)"/>
</clipPath>
</defs>
</svg>
