<svg width="119" height="25" viewBox="0 0 119 25" fill="none" xmlns="http://www.w3.org/2000/svg">
<path d="M12.0047 3.22462C11.8645 3.22375 11.7269 3.26217 11.6074 3.33553C11.488 3.40889 11.3915 3.51425 11.3289 3.63966L8.75272 8.79201L2.63553 9.73341C2.49861 9.75457 2.37022 9.81324 2.2646 9.90291C2.15899 9.99259 2.08027 10.1098 2.03719 10.2414C1.9941 10.3731 1.98833 10.5142 2.02052 10.6489C2.0527 10.7837 2.12158 10.9069 2.21952 11.0049L6.45096 15.2363L5.50858 21.3604C5.4875 21.4974 5.5048 21.6376 5.55856 21.7653C5.61232 21.8931 5.70043 22.0035 5.81313 22.0842C5.92582 22.1649 6.05868 22.2129 6.19696 22.2226C6.33524 22.2324 6.47353 22.2037 6.59647 22.1397L11.9998 19.3203L17.4031 22.1397C17.5261 22.2037 17.6643 22.2324 17.8026 22.2226C17.9409 22.2129 18.0738 22.1649 18.1865 22.0842C18.2991 22.0035 18.3873 21.8931 18.441 21.7653C18.4948 21.6376 18.5121 21.4974 18.491 21.3604L17.5486 15.2363L21.7801 11.0049C21.878 10.9069 21.9469 10.7837 21.9791 10.6489C22.0112 10.5142 22.0055 10.3731 21.9624 10.2414C21.9193 10.1098 21.8406 9.99259 21.735 9.90291C21.6294 9.81324 21.501 9.75457 21.364 9.73341L15.2469 8.79201L12.6707 3.63966C12.6088 3.51573 12.5138 3.41135 12.3963 3.3381C12.2787 3.26484 12.1432 3.22556 12.0047 3.22462ZM11.9998 5.65138L14.0789 9.80959C14.1324 9.91686 14.2109 10.0097 14.3078 10.0804C14.4046 10.1511 14.517 10.1975 14.6355 10.2158L19.6726 10.9912L16.2195 14.4444C16.1362 14.5277 16.0737 14.6294 16.037 14.7414C16.0004 14.8534 15.9906 14.9724 16.0086 15.0889L16.783 20.124L12.3465 17.8096C12.2394 17.7538 12.1205 17.7247 11.9998 17.7247C11.8791 17.7247 11.7602 17.7538 11.6531 17.8096L7.21659 20.124L7.991 15.0889C8.00893 14.9724 7.99918 14.8534 7.96253 14.7414C7.92589 14.6294 7.86337 14.5277 7.78006 14.4444L4.32694 10.9912L9.36405 10.2158C9.48255 10.1975 9.59493 10.1511 9.69178 10.0804C9.78863 10.0097 9.86713 9.91686 9.92069 9.80959L11.9998 5.65138Z" fill="#B5B5B5"/>
<path d="M36.4569 3.31817L39.1959 9.46217L45.8849 10.1687C46.3154 10.2142 46.4884 10.7477 46.1669 11.0372L41.1704 15.5397L42.5659 22.1202C42.6559 22.5437 42.2019 22.8732 41.8269 22.6572L36.0004 19.2957L30.1739 22.6567C29.7989 22.8727 29.3454 22.5432 29.4349 22.1197L30.8304 15.5392L25.8339 11.0367C25.5124 10.7472 25.6859 10.2137 26.1159 10.1682L32.8049 9.46167L35.5439 3.31767C35.7199 2.92267 36.2809 2.92267 36.4569 3.31817Z" fill="url(#paint0_linear_2885_13691)"/>
<path d="M59.937 3.31817L62.5619 9.46217L68.9722 10.1687C69.3848 10.2142 69.5506 10.7477 69.2425 11.0372L64.4541 15.5397L65.7915 22.1202C65.8777 22.5437 65.4427 22.8732 65.0833 22.6572L59.4996 19.2957L53.9158 22.6567C53.5565 22.8727 53.1219 22.5432 53.2076 22.1197L54.545 15.5392L49.7567 11.0367C49.4486 10.7472 49.6148 10.2137 50.0269 10.1682L56.4372 9.46167L59.0621 3.31767C59.2307 2.92267 59.7684 2.92267 59.937 3.31817Z" fill="url(#paint1_linear_2885_13691)"/>
<path d="M83.4569 3.31817L86.1959 9.46217L92.8849 10.1687C93.3154 10.2142 93.4884 10.7477 93.1669 11.0372L88.1704 15.5397L89.5659 22.1202C89.6559 22.5437 89.2019 22.8732 88.8269 22.6572L83.0004 19.2957L77.1739 22.6567C76.7989 22.8727 76.3454 22.5432 76.4349 22.1197L77.8304 15.5392L72.8339 11.0367C72.5124 10.7472 72.6859 10.2137 73.1159 10.1682L79.8049 9.46167L82.5439 3.31767C82.7199 2.92267 83.2809 2.92267 83.4569 3.31817Z" fill="url(#paint2_linear_2885_13691)"/>
<path d="M107.457 3.31817L110.196 9.46217L116.885 10.1687C117.315 10.2142 117.488 10.7477 117.167 11.0372L112.17 15.5397L113.566 22.1202C113.656 22.5437 113.202 22.8732 112.827 22.6572L107 19.2957L101.174 22.6567C100.799 22.8727 100.345 22.5432 100.435 22.1197L101.83 15.5392L96.8339 11.0367C96.5124 10.7472 96.6859 10.2137 97.1159 10.1682L103.805 9.46167L106.544 3.31767C106.72 2.92267 107.281 2.92267 107.457 3.31817Z" fill="url(#paint3_linear_2885_13691)"/>
<defs>
<linearGradient id="paint0_linear_2885_13691" x1="28.5049" y1="3.90517" x2="43.0464" y2="23.3582" gradientUnits="userSpaceOnUse">
<stop stop-color="#FFDA1C"/>
<stop offset="1" stop-color="#FEB705"/>
</linearGradient>
<linearGradient id="paint1_linear_2885_13691" x1="52.3164" y1="3.90517" x2="67.0218" y2="22.7577" gradientUnits="userSpaceOnUse">
<stop stop-color="#FFDA1C"/>
<stop offset="1" stop-color="#FEB705"/>
</linearGradient>
<linearGradient id="paint2_linear_2885_13691" x1="75.5049" y1="3.90517" x2="90.0464" y2="23.3582" gradientUnits="userSpaceOnUse">
<stop stop-color="#FFDA1C"/>
<stop offset="1" stop-color="#FEB705"/>
</linearGradient>
<linearGradient id="paint3_linear_2885_13691" x1="99.5049" y1="3.90517" x2="114.046" y2="23.3582" gradientUnits="userSpaceOnUse">
<stop stop-color="#FFDA1C"/>
<stop offset="1" stop-color="#FEB705"/>
</linearGradient>
</defs>
</svg>
