<svg width="12" height="22" viewBox="0 0 12 22" fill="none" xmlns="http://www.w3.org/2000/svg">
<path d="M10.9852 0.72492C10.7904 0.730597 10.6055 0.811852 10.4696 0.951483L0.719583 10.7015C0.578983 10.8421 0.5 11.0329 0.5 11.2318C0.5 11.4306 0.578983 11.6214 0.719583 11.762L10.4696 21.512C10.5387 21.584 10.6215 21.6415 10.7131 21.6811C10.8047 21.7206 10.9032 21.7416 11.003 21.7426C11.1028 21.7436 11.2018 21.7247 11.2942 21.687C11.3865 21.6493 11.4705 21.5935 11.541 21.5229C11.6116 21.4524 11.6674 21.3684 11.7051 21.2761C11.7428 21.1837 11.7617 21.0847 11.7607 20.9849C11.7597 20.8851 11.7387 20.7866 11.6992 20.695C11.6596 20.6034 11.6021 20.5206 11.5301 20.4515L2.3104 11.2318L11.5301 2.01203C11.6383 1.90665 11.7122 1.77106 11.7421 1.62301C11.7719 1.47496 11.7564 1.32134 11.6975 1.18225C11.6386 1.04317 11.5391 0.925102 11.412 0.843503C11.2849 0.761903 11.1362 0.720572 10.9852 0.72492Z" fill="#1EB28F"/>
</svg>
