<svg width="24" height="25" viewBox="0 0 24 25" fill="none" xmlns="http://www.w3.org/2000/svg">
<path d="M12 0.132812C5.38324 0.132812 0 5.51606 0 12.1328C0 18.7496 5.38324 24.1328 12 24.1328C18.6168 24.1328 24 18.7496 24 12.1328C24 5.51606 18.6168 0.132812 12 0.132812ZM12 1.93281C17.644 1.93281 22.2 6.48885 22.2 12.1328C22.2 17.7768 17.644 22.3328 12 22.3328C6.35603 22.3328 1.8 17.7768 1.8 12.1328C1.8 6.48885 6.35603 1.93281 12 1.93281ZM16.4824 8.52461C16.2487 8.53142 16.0268 8.62893 15.8637 8.79648L10.5 14.1602L8.13633 11.7965C8.0534 11.7101 7.95407 11.6412 7.84415 11.5936C7.73424 11.5461 7.61595 11.521 7.49621 11.5198C7.37648 11.5186 7.2577 11.5413 7.14684 11.5866C7.03598 11.6318 6.93527 11.6987 6.8506 11.7834C6.76593 11.8681 6.69901 11.9688 6.65375 12.0797C6.60849 12.1905 6.5858 12.3093 6.58702 12.429C6.58823 12.5488 6.61333 12.667 6.66084 12.777C6.70834 12.8869 6.7773 12.9862 6.86367 13.0691L9.86367 16.0691C10.0325 16.2379 10.2613 16.3326 10.5 16.3326C10.7387 16.3326 10.9675 16.2379 11.1363 16.0691L17.1363 10.0691C17.2662 9.94269 17.3548 9.77998 17.3907 9.60232C17.4265 9.42466 17.4079 9.24031 17.3372 9.07341C17.2665 8.90651 17.1471 8.76483 16.9946 8.66691C16.8421 8.56899 16.6636 8.51939 16.4824 8.52461Z" fill="#1EB28F"/>
</svg>
