<svg width="24" height="25" viewBox="0 0 24 25" fill="none" xmlns="http://www.w3.org/2000/svg">
<path d="M12 0.558594C5.38324 0.558594 0 5.94184 0 12.5586C0 19.1754 5.38324 24.5586 12 24.5586C18.6168 24.5586 24 19.1754 24 12.5586C24 5.94184 18.6168 0.558594 12 0.558594ZM12 2.35859C17.644 2.35859 22.2 6.91463 22.2 12.5586C22.2 18.2026 17.644 22.7586 12 22.7586C6.35603 22.7586 1.8 18.2026 1.8 12.5586C1.8 6.91463 6.35603 2.35859 12 2.35859ZM16.4824 8.95039C16.2487 8.9572 16.0268 9.05471 15.8637 9.22227L10.5 14.5859L8.13633 12.2223C8.0534 12.1359 7.95407 12.0669 7.84415 12.0194C7.73424 11.9719 7.61595 11.9468 7.49621 11.9456C7.37648 11.9444 7.2577 11.9671 7.14684 12.0123C7.03598 12.0576 6.93527 12.1245 6.8506 12.2092C6.76593 12.2939 6.69901 12.3946 6.65375 12.5054C6.60849 12.6163 6.5858 12.7351 6.58702 12.8548C6.58823 12.9745 6.61333 13.0928 6.66084 13.2027C6.70834 13.3127 6.7773 13.412 6.86367 13.4949L9.86367 16.4949C10.0325 16.6636 10.2613 16.7584 10.5 16.7584C10.7387 16.7584 10.9675 16.6636 11.1363 16.4949L17.1363 10.4949C17.2662 10.3685 17.3548 10.2058 17.3907 10.0281C17.4265 9.85044 17.4079 9.66609 17.3372 9.49919C17.2665 9.33229 17.1471 9.19061 16.9946 9.09269C16.8421 8.99477 16.6636 8.94517 16.4824 8.95039Z" fill="#E9861B"/>
</svg>
