<svg width="277" height="207" viewBox="0 0 277 207" fill="none" xmlns="http://www.w3.org/2000/svg">
<path d="M258.511 40.6663C233.239 -24.4515 189.804 50.1212 112.821 9.80279C20.6802 -20.9928 12.3579 32.3719 12.3578 74.6357C12.3577 112.732 -33.4155 138.232 58.8197 187.302C137.973 229.411 201.755 191.21 244.183 151.313C283.865 113.998 283.783 105.784 258.511 40.6663Z" stroke="#E9861B"/>
<path d="M18.4892 165.638C43.7609 230.756 87.1964 156.183 164.179 196.502C256.32 227.297 264.642 173.933 264.642 131.669C264.642 93.5731 310.416 68.0722 218.18 19.0029C139.027 -23.1066 75.2447 15.0944 32.8166 54.9919C-6.86522 92.3068 -6.78255 100.521 18.4892 165.638Z" fill="#E9861B"/>
<path d="M95.2291 83.1923C94.8691 84.0057 94.5958 84.699 94.4091 85.2723C94.2358 85.8323 94.1491 86.419 94.1491 87.0323C94.1491 89.099 95.4625 90.1323 98.0891 90.1323C99.0891 90.1323 100.009 89.9723 100.849 89.6523C101.702 89.3457 102.329 88.9323 102.729 88.4123L102.329 88.3123C101.436 88.099 100.809 87.939 100.449 87.8323C99.3825 87.5123 98.6225 87.1323 98.1691 86.6923C97.7291 86.239 97.5091 85.5857 97.5091 84.7323C97.5091 83.6257 97.7891 82.5657 98.3491 81.5523C98.9091 80.5257 99.6491 79.699 100.569 79.0723C101.489 78.4457 102.462 78.1323 103.489 78.1323C103.902 78.1323 104.322 78.1923 104.749 78.3123C105.176 78.4323 105.462 78.579 105.609 78.7523L104.669 81.6723C104.549 81.619 104.362 81.579 104.109 81.5523C103.856 81.5123 103.629 81.4923 103.429 81.4923C102.656 81.4923 101.936 81.7123 101.269 82.1523C100.616 82.579 100.196 83.1123 100.009 83.7523C99.9825 83.8323 99.9691 83.8923 99.9691 83.9323C99.9691 84.1457 100.136 84.3323 100.469 84.4923C100.802 84.6523 101.396 84.8257 102.249 85.0123C103.489 85.279 104.322 85.6457 104.749 86.1123C105.176 86.5657 105.389 87.0923 105.389 87.6923C105.389 88.7057 105.062 89.659 104.409 90.5523C103.769 91.4457 102.889 92.159 101.769 92.6923C100.649 93.2257 99.4225 93.4923 98.0891 93.4923C96.8758 93.4923 95.7825 93.2657 94.8091 92.8123C93.8491 92.359 93.0891 91.679 92.5291 90.7723C91.9691 89.879 91.6891 88.7923 91.6891 87.5123C91.6891 87.2323 91.6958 87.019 91.7091 86.8723C91.8158 85.5523 92.2825 84.0057 93.1091 82.2323L95.2291 83.1923ZM110.014 73.5523C110.174 74.7123 110.294 76.2323 110.374 78.1123C110.467 79.979 110.514 81.699 110.514 83.2723C110.514 83.8057 110.561 84.219 110.654 84.5123C110.747 84.7923 110.907 84.9923 111.134 85.1123C111.361 85.2323 111.694 85.2923 112.134 85.2923H112.214L112.394 86.9723L112.214 88.6523H112.134C110.641 88.6523 109.554 88.219 108.874 87.3523C108.194 86.4723 107.847 85.159 107.834 83.4123C107.781 79.5323 107.587 76.4523 107.254 74.1723L110.014 73.5523ZM112.059 85.2923H112.379C114.525 85.2923 116.105 85.1523 117.119 84.8723C118.132 84.5923 118.692 84.1457 118.799 83.5323C118.852 83.1457 118.732 82.7723 118.439 82.4123C118.145 82.0523 117.785 81.8257 117.359 81.7323C117.305 81.719 117.232 81.7123 117.139 81.7123C116.725 81.7123 116.352 81.8657 116.019 82.1723C115.685 82.4657 115.519 82.8257 115.519 83.2523C115.519 83.679 115.819 84.079 116.419 84.4523C117.032 84.8123 117.772 85.1057 118.639 85.3323C119.519 85.5457 120.325 85.6523 121.059 85.6523C122.045 85.6523 122.605 85.4657 122.739 85.0923C122.779 84.9857 122.799 84.8923 122.799 84.8123C122.799 84.1723 121.992 83.5123 120.379 82.8323C118.765 82.1523 116.439 81.399 113.399 80.5723L114.639 77.4523C117.345 78.2523 119.465 79.019 120.999 79.7523C122.545 80.4723 123.632 81.2057 124.259 81.9523C124.885 82.6857 125.199 83.4923 125.199 84.3723C125.199 84.959 125.072 85.6457 124.819 86.4323C124.592 87.139 124.105 87.6723 123.359 88.0323C122.625 88.379 121.745 88.5523 120.719 88.5523C119.559 88.5523 118.385 88.3457 117.199 87.9323C116.025 87.5057 115.052 86.919 114.279 86.1723C113.505 85.4123 113.119 84.5723 113.119 83.6523C113.119 83.3457 113.152 83.079 113.219 82.8523C113.565 81.479 114.125 80.3923 114.899 79.5923C115.685 78.7923 116.579 78.4457 117.579 78.5523C118.179 78.6057 118.725 78.859 119.219 79.3123C119.725 79.7523 120.119 80.3123 120.399 80.9923C120.692 81.6723 120.839 82.3723 120.839 83.0923C120.839 83.359 120.819 83.6257 120.779 83.8923C120.592 85.1057 120.179 86.059 119.539 86.7523C118.899 87.4323 118.005 87.919 116.859 88.2123C115.712 88.5057 114.219 88.6523 112.379 88.6523H112.059V85.2923ZM149.903 85.2923C150.25 85.2923 150.53 85.1923 150.743 84.9923C150.97 84.779 151.083 84.519 151.083 84.2123C151.083 83.8923 150.95 83.359 150.683 82.6123C150.417 81.8523 150.183 81.239 149.983 80.7723L152.243 79.5323C152.497 80.0523 152.763 80.8057 153.043 81.7923C153.323 82.7657 153.463 83.619 153.463 84.3523C153.463 85.139 153.31 85.859 153.003 86.5123C152.71 87.1657 152.29 87.6857 151.743 88.0723C151.21 88.459 150.597 88.6523 149.903 88.6523H149.843V85.2923H149.903ZM144.463 88.6523V85.2923H144.583C145.237 85.2923 145.723 84.959 146.043 84.2923C146.283 83.8123 146.45 83.3323 146.543 82.8523C146.65 82.359 146.71 82.0857 146.723 82.0323L148.983 82.1323C148.837 82.959 148.763 83.5723 148.763 83.9723C148.763 84.3857 148.857 84.7123 149.043 84.9523C149.23 85.179 149.51 85.2923 149.883 85.2923H149.923L150.103 86.9723L149.923 88.6523H149.883C149.177 88.6523 148.57 88.4723 148.063 88.1123C147.57 87.739 147.203 87.219 146.963 86.5523L147.543 86.5323C147.103 87.239 146.643 87.7723 146.163 88.1323C145.683 88.479 145.137 88.6523 144.523 88.6523H144.463ZM142.763 83.4723C142.937 83.9657 143.09 84.3323 143.223 84.5723C143.37 84.8123 143.557 84.9923 143.783 85.1123C144.01 85.2323 144.323 85.2923 144.723 85.2923L144.563 88.6523C143.657 88.6523 142.883 88.2923 142.243 87.5723C141.617 86.839 141.13 85.8723 140.783 84.6723L142.763 83.4723ZM133.803 84.2323C133.443 85.1123 133.177 85.8323 133.003 86.3923C132.843 86.939 132.763 87.5257 132.763 88.1523C132.763 90.1657 134.07 91.1723 136.683 91.1723C137.577 91.1723 138.363 91.019 139.043 90.7123C139.737 90.419 140.27 90.0257 140.643 89.5323C141.03 89.039 141.223 88.5057 141.223 87.9323C141.223 87.3323 141.01 86.419 140.583 85.1923C140.157 83.9657 139.923 83.299 139.883 83.1923L142.223 81.9123C143.103 84.219 143.543 86.2257 143.543 87.9323C143.543 89.1457 143.25 90.2523 142.663 91.2523C142.077 92.2657 141.263 93.0657 140.223 93.6523C139.183 94.239 138.003 94.5323 136.683 94.5323C135.443 94.5323 134.337 94.299 133.363 93.8323C132.403 93.3657 131.65 92.679 131.103 91.7723C130.557 90.879 130.283 89.8123 130.283 88.5723C130.283 88.2923 130.29 88.079 130.303 87.9323C130.397 86.6123 130.863 85.059 131.703 83.2723L133.803 84.2323ZM167.549 88.6523C166.162 88.6523 165.155 88.2057 164.529 87.3123C163.902 86.419 163.555 85.1723 163.489 83.5723C163.475 83.159 163.542 82.7857 163.689 82.4523C163.835 82.1057 164.029 81.8323 164.269 81.6323C164.509 81.4323 164.735 81.3323 164.949 81.3323C165.095 81.3323 165.215 81.3923 165.309 81.5123C165.402 81.6323 165.449 81.8057 165.449 82.0323C165.475 82.939 165.549 83.6257 165.669 84.0923C165.789 84.5457 165.995 84.859 166.289 85.0323C166.582 85.2057 167.009 85.2923 167.569 85.2923H167.809V88.6523H167.549ZM164.889 73.5523C165.289 76.659 165.482 79.6123 165.469 82.4123C165.469 83.8123 165.035 85.0257 164.169 86.0523C163.302 87.0657 162.162 87.8457 160.749 88.3923C159.335 88.9257 157.809 89.2057 156.169 89.2323L155.369 86.1523C156.849 86.0457 158.109 85.8857 159.149 85.6723C160.202 85.459 161.069 85.099 161.749 84.5923C162.429 84.0723 162.769 83.3657 162.769 82.4723C162.755 81.1257 162.695 79.8523 162.589 78.6523C162.482 77.439 162.315 75.9457 162.089 74.1723L164.889 73.5523ZM157.429 75.3123C158.202 76.8723 158.782 78.339 159.169 79.7123C159.555 81.0723 159.749 82.2923 159.749 83.3723C159.749 84.4123 159.582 85.2723 159.249 85.9523L157.049 86.1923C157.275 85.7523 157.389 85.199 157.389 84.5323C157.389 83.6257 157.189 82.5457 156.789 81.2923C156.389 80.039 155.815 78.5857 155.069 76.9323L157.429 75.3123ZM177.005 76.2123L171.385 78.5923C172.132 79.2723 172.912 80.159 173.725 81.2523C174.538 82.3323 174.945 83.4323 174.945 84.5523C174.945 84.819 174.918 85.059 174.865 85.2723C174.625 86.4057 173.918 87.2523 172.745 87.8123C171.572 88.3723 170.105 88.6523 168.345 88.6523H167.605V85.2923H168.345C169.412 85.2923 170.305 85.2123 171.025 85.0523C171.758 84.8923 172.258 84.6857 172.525 84.4323C171.965 82.9923 170.572 81.359 168.345 79.5323L168.625 76.6523L176.085 73.5323L177.005 76.2123ZM66.0545 138.692C65.7211 134.799 65.5545 131.726 65.5545 129.472C65.5545 128.872 65.5611 128.439 65.5745 128.172C65.6145 127.346 65.8811 126.672 66.3745 126.152C66.8811 125.619 67.5211 125.352 68.2945 125.352C68.4678 125.352 68.6011 125.359 68.6945 125.372C69.2145 124.239 69.8411 123.346 70.5745 122.692C71.3078 122.039 72.0478 121.712 72.7945 121.712C73.6345 121.712 74.3211 121.972 74.8545 122.492C75.3878 122.999 75.8478 123.779 76.2345 124.832C76.5811 125.779 76.8545 126.426 77.0545 126.772C77.2545 127.119 77.4745 127.292 77.7145 127.292H77.8545L78.0345 128.972L77.8545 130.652H77.7145C77.3411 130.652 76.9745 130.559 76.6145 130.372C76.2545 130.172 75.9345 129.892 75.6545 129.532C75.4011 129.946 75.1078 130.252 74.7745 130.452C74.4545 130.652 74.0745 130.752 73.6345 130.752C73.1145 130.752 72.4345 130.599 71.5945 130.292C70.7678 129.986 69.6878 129.479 68.3545 128.772C68.2745 128.746 68.2278 128.772 68.2145 128.852C68.2011 129.852 68.2411 130.999 68.3345 132.292C68.4411 133.586 68.5745 135.099 68.7345 136.832C68.7478 137.112 68.7678 137.352 68.7945 137.552C68.8211 137.766 68.8345 137.932 68.8345 138.052L66.0545 138.692ZM74.5545 127.832C74.4611 127.072 74.2611 126.366 73.9545 125.712C73.6611 125.046 73.2478 124.712 72.7145 124.712C72.1811 124.712 71.5878 125.306 70.9345 126.492C71.5611 126.892 72.1411 127.199 72.6745 127.412C73.2078 127.612 73.6411 127.739 73.9745 127.792C74.3078 127.846 74.5011 127.859 74.5545 127.832ZM83.9437 127.292L84.1237 128.972L83.9437 130.652H83.7437C83.077 130.652 82.4437 130.439 81.8437 130.012C81.257 129.572 80.777 128.986 80.4037 128.252C80.0437 127.506 79.857 126.686 79.8437 125.792C79.8037 124.859 79.717 123.299 79.5837 121.112C79.4637 118.912 79.3503 117.279 79.2437 116.212L82.0437 115.572C82.1503 116.799 82.2637 119.146 82.3837 122.612C82.4637 124.612 82.5103 125.679 82.5237 125.812C82.5503 126.346 82.6637 126.726 82.8637 126.952C83.077 127.179 83.3703 127.292 83.7437 127.292H83.9437ZM77.6637 127.292H78.0437C78.697 127.292 79.1637 127.186 79.4437 126.972C79.7237 126.746 79.857 126.352 79.8437 125.792L81.8237 126.032C81.8237 126.899 81.677 127.686 81.3837 128.392C81.0903 129.086 80.657 129.639 80.0837 130.052C79.5237 130.452 78.8637 130.652 78.1037 130.652H77.6637V127.292ZM83.7774 127.292H83.8774C84.9308 127.292 85.7441 127.246 86.3174 127.152C86.8908 127.059 87.2908 126.912 87.5174 126.712C87.7574 126.512 87.8908 126.239 87.9174 125.892C87.9574 125.346 87.8908 124.619 87.7174 123.712L89.9974 123.272C90.1841 124.272 90.2774 125.379 90.2774 126.592C90.3041 126.752 90.4241 126.912 90.6374 127.072C90.8641 127.219 91.2041 127.292 91.6574 127.292H91.7574L91.9374 128.972L91.7574 130.652H91.6574C91.0441 130.652 90.4774 130.499 89.9574 130.192C89.4508 129.872 89.0241 129.459 88.6774 128.952L89.2174 129.072C88.8041 129.632 88.1974 130.039 87.3974 130.292C86.5974 130.532 85.4241 130.652 83.8774 130.652H83.7774V127.292ZM83.6374 132.292L85.3974 134.072L83.6374 135.852L83.0374 135.252C82.6374 134.866 82.2441 134.472 81.8574 134.072L83.6374 132.292ZM87.1174 132.292L88.8774 134.072L87.1174 135.852L86.5174 135.252C86.1174 134.866 85.7241 134.472 85.3374 134.072L87.1174 132.292ZM91.5504 127.292H91.8704C93.3504 127.292 94.5371 127.232 95.4304 127.112C96.3237 126.992 97.0104 126.772 97.4904 126.452C97.9837 126.132 98.2504 125.666 98.2904 125.052C98.2904 124.306 98.1771 123.586 97.9504 122.892C97.7371 122.186 97.4437 121.619 97.0704 121.192C96.7104 120.752 96.3171 120.532 95.8904 120.532C95.5171 120.532 95.1904 120.706 94.9104 121.052C94.6304 121.386 94.4904 121.726 94.4904 122.072C94.4904 122.259 94.5371 122.406 94.6304 122.512C94.8304 122.739 95.1971 122.926 95.7304 123.072C96.2771 123.219 96.8771 123.292 97.5304 123.292C98.0637 123.292 98.5104 123.259 98.8704 123.192V126.152C98.1904 126.312 97.5171 126.392 96.8504 126.392C95.8637 126.392 94.9971 126.219 94.2504 125.872C93.5037 125.526 92.9704 125.019 92.6504 124.352C92.4104 123.832 92.2904 123.259 92.2904 122.632C92.2904 121.846 92.4571 121.079 92.7904 120.332C93.1371 119.572 93.6037 118.952 94.1904 118.472C94.7904 117.979 95.4504 117.732 96.1704 117.732C96.9704 117.732 97.6971 118.059 98.3504 118.712C99.0171 119.366 99.5304 120.232 99.8904 121.312C100.264 122.392 100.444 123.539 100.43 124.752C100.404 126.619 99.6904 128.072 98.2904 129.112C96.8904 130.139 94.7371 130.652 91.8304 130.652H91.5504V127.292ZM93.7104 114.572C93.7104 114.572 94.1504 114.132 95.0304 113.252L95.7104 112.572L97.6904 114.572L95.7104 116.552L93.7104 114.572ZM108.725 115.552C108.885 116.712 109.005 118.232 109.085 120.112C109.178 121.979 109.225 123.699 109.225 125.272C109.225 125.806 109.272 126.219 109.365 126.512C109.458 126.792 109.618 126.992 109.845 127.112C110.072 127.232 110.405 127.292 110.845 127.292H110.925L111.105 128.972L110.925 130.652H110.845C109.352 130.652 108.265 130.219 107.585 129.352C106.905 128.472 106.558 127.159 106.545 125.412C106.492 121.532 106.298 118.452 105.965 116.172L108.725 115.552ZM110.75 127.292H111.81C113.543 127.292 114.41 126.912 114.41 126.152C114.41 125.912 114.256 125.359 113.95 124.492C113.656 123.626 113.443 123.052 113.31 122.772L115.65 121.492C115.903 122.026 116.163 122.779 116.43 123.752C116.71 124.712 116.85 125.559 116.85 126.292C116.85 127.719 116.416 128.806 115.55 129.552C114.683 130.286 113.436 130.652 111.81 130.652H110.75V127.292ZM110.31 134.092C110.31 134.092 110.75 133.652 111.63 132.772L112.31 132.092L114.29 134.092L112.31 136.072L110.31 134.092ZM129.298 119.332C129.405 120.359 129.505 121.206 129.598 121.872C129.758 123.446 129.878 124.499 129.958 125.032C130.052 125.712 130.152 126.206 130.258 126.512C130.378 126.819 130.538 127.026 130.738 127.132C130.938 127.239 131.245 127.292 131.658 127.292H132.038L132.218 128.972L132.038 130.652H131.658C130.432 130.652 129.492 130.259 128.838 129.472C128.185 128.672 127.738 127.346 127.498 125.492C127.272 123.972 127.018 122.099 126.738 119.872L129.298 119.332ZM128.918 129.272C128.038 129.552 127.185 129.692 126.358 129.692C125.132 129.692 124.125 129.399 123.338 128.812C122.552 128.212 122.158 127.386 122.158 126.332C122.158 126.199 122.172 125.999 122.198 125.732C122.372 124.599 122.932 123.646 123.878 122.872C124.838 122.086 126.058 121.406 127.538 120.832L128.158 123.752C127.305 123.939 126.492 124.232 125.718 124.632C124.958 125.032 124.578 125.406 124.578 125.752C124.578 125.979 124.732 126.179 125.038 126.352C125.358 126.526 125.765 126.612 126.258 126.612C126.872 126.612 127.552 126.459 128.298 126.152L128.918 129.272ZM131.824 127.292H132.264C133.224 127.292 134.064 126.659 134.784 125.392C135.464 124.179 136.124 123.266 136.764 122.652C137.417 122.026 138.104 121.712 138.824 121.712C139.664 121.712 140.344 121.972 140.864 122.492C141.397 122.999 141.857 123.779 142.244 124.832C142.59 125.792 142.857 126.446 143.044 126.792C143.244 127.126 143.47 127.292 143.724 127.292H143.984L144.164 128.972L143.984 130.652H143.724C143.35 130.652 142.984 130.559 142.624 130.372C142.264 130.172 141.944 129.892 141.664 129.532C141.437 129.932 141.137 130.239 140.764 130.452C140.43 130.652 140.044 130.752 139.604 130.752C138.59 130.752 137.23 130.226 135.524 129.172C135.11 129.666 134.617 130.039 134.044 130.292C133.484 130.532 132.87 130.652 132.204 130.652H131.824V127.292ZM136.944 126.512C137.584 126.992 138.217 127.339 138.844 127.552C139.47 127.766 139.984 127.872 140.384 127.872C140.504 127.872 140.584 127.866 140.624 127.852C140.53 127.106 140.324 126.399 140.004 125.732C139.684 125.052 139.257 124.712 138.724 124.712C138.177 124.712 137.584 125.312 136.944 126.512ZM143.777 127.292H144.397C145.05 127.292 145.53 127.166 145.837 126.912C146.144 126.646 146.297 126.252 146.297 125.732C146.297 124.866 146.224 123.286 146.077 120.992C145.93 118.686 145.797 117.079 145.677 116.172L148.477 115.552C148.57 116.379 148.67 117.992 148.777 120.392C148.897 122.792 148.957 124.492 148.957 125.492C148.957 126.439 148.764 127.306 148.377 128.092C147.99 128.879 147.45 129.506 146.757 129.972C146.077 130.426 145.31 130.652 144.457 130.652H143.777V127.292ZM153.354 115.552C153.514 116.712 153.634 118.232 153.714 120.112C153.807 121.979 153.854 123.699 153.854 125.272C153.854 125.806 153.901 126.219 153.994 126.512C154.087 126.792 154.247 126.992 154.474 127.112C154.701 127.232 155.034 127.292 155.474 127.292H155.554L155.734 128.972L155.554 130.652H155.474C153.981 130.652 152.894 130.219 152.214 129.352C151.534 128.472 151.187 127.159 151.174 125.412C151.121 121.532 150.927 118.452 150.594 116.172L153.354 115.552ZM161.227 123.512C161.934 124.552 162.507 125.339 162.947 125.872C163.4 126.406 163.807 126.779 164.167 126.992C164.527 127.192 164.914 127.292 165.327 127.292H165.687L165.867 128.972L165.687 130.652H165.327C164.7 130.652 164.1 130.466 163.527 130.092C162.967 129.719 162.394 129.166 161.807 128.432C161.22 127.699 160.514 126.692 159.687 125.412L161.227 123.512ZM164.427 118.212L158.807 120.592C159.554 121.272 160.334 122.159 161.147 123.252C161.96 124.332 162.367 125.432 162.367 126.552C162.367 126.819 162.34 127.059 162.287 127.272C162.047 128.406 161.34 129.252 160.167 129.812C158.994 130.372 157.527 130.652 155.767 130.652H155.027V127.292H155.767C156.834 127.292 157.727 127.212 158.447 127.052C159.18 126.892 159.68 126.686 159.947 126.432C159.387 124.992 157.994 123.359 155.767 121.532L156.047 118.652L163.507 115.532L164.427 118.212ZM169.655 125.852C170.482 126.426 171.235 126.879 171.915 127.212C172.595 127.546 173.089 127.712 173.395 127.712C173.489 127.712 173.562 127.692 173.615 127.652C173.722 127.572 173.802 127.459 173.855 127.312C173.922 127.152 173.955 126.972 173.955 126.772C173.955 126.266 173.809 125.799 173.515 125.372C173.235 124.932 172.869 124.712 172.415 124.712C171.682 124.712 170.882 125.752 170.015 127.832C169.629 128.779 169.075 129.486 168.355 129.952C167.635 130.419 166.815 130.652 165.895 130.652H165.515L165.575 127.292H165.955C166.942 127.292 167.782 126.659 168.475 125.392C169.155 124.139 169.802 123.212 170.415 122.612C171.042 122.012 171.735 121.712 172.495 121.712C173.242 121.712 173.895 121.952 174.455 122.432C175.015 122.899 175.442 123.519 175.735 124.292C176.029 125.052 176.175 125.846 176.175 126.672C176.175 127.486 176.029 128.232 175.735 128.912C175.455 129.579 175.029 130.092 174.455 130.452C174.149 130.652 173.755 130.752 173.275 130.752C172.075 130.752 170.449 130.052 168.395 128.652L169.655 125.852Z" fill="#FEFEFE"/>
<circle opacity="0.15" cx="237" cy="81.1523" r="23.5" fill="#DDEBFF"/>
<path d="M200.641 79.6523C196.447 79.6523 193.002 83.0971 193.002 87.2912V122.013C193.002 126.208 196.447 129.652 200.641 129.652H239.53C243.724 129.652 247.169 126.208 247.169 122.013V87.2912C247.169 83.0971 243.724 79.6523 239.53 79.6523H200.641ZM200.641 83.819H239.53C241.472 83.819 243.002 85.3493 243.002 87.2912V122.013C243.002 123.955 241.472 125.486 239.53 125.486H200.641C198.699 125.486 197.169 123.955 197.169 122.013V87.2912C197.169 85.3493 198.699 83.819 200.641 83.819ZM201.335 85.9023C200.569 85.9023 199.946 86.5246 199.946 87.2912V88.6801C199.946 89.4468 200.569 90.069 201.335 90.069H202.724C203.491 90.069 204.113 89.4468 204.113 88.6801V87.2912C204.113 86.5246 203.491 85.9023 202.724 85.9023H201.335ZM237.446 85.9023C236.68 85.9023 236.058 86.5246 236.058 87.2912V88.6801C236.058 89.4468 236.68 90.069 237.446 90.069H238.835C239.602 90.069 240.224 89.4468 240.224 88.6801V87.2912C240.224 86.5246 239.602 85.9023 238.835 85.9023H237.446ZM214.53 93.5439C213.923 93.5439 213.309 93.7024 212.764 94.0241C211.702 94.6511 211.058 95.7855 211.058 97.0162V112.294C211.058 113.522 211.699 114.651 212.761 115.278C213.842 115.92 215.111 115.935 216.203 115.335L230.092 107.696L230.095 107.693C231.196 107.086 231.891 105.919 231.891 104.655C231.891 103.391 231.196 102.222 230.095 101.614L230.092 101.611L216.201 93.9725L216.198 93.9698C215.679 93.686 215.103 93.5439 214.53 93.5439ZM201.335 94.2357C200.569 94.2357 199.946 94.8579 199.946 95.6246V97.0135C199.946 97.7801 200.569 98.4023 201.335 98.4023H202.724C203.491 98.4023 204.113 97.7801 204.113 97.0135V95.6246C204.113 94.8579 203.491 94.2357 202.724 94.2357H201.335ZM237.446 94.2357C236.68 94.2357 236.058 94.8579 236.058 95.6246V97.0135C236.058 97.7801 236.68 98.4023 237.446 98.4023H238.835C239.602 98.4023 240.224 97.7801 240.224 97.0135V95.6246C240.224 94.8579 239.602 94.2357 238.835 94.2357H237.446ZM215.224 98.188L226.978 104.652L215.224 111.119V98.188ZM201.335 102.569C200.569 102.569 199.946 103.191 199.946 103.958V105.347C199.946 106.113 200.569 106.736 201.335 106.736H202.724C203.491 106.736 204.113 106.113 204.113 105.347V103.958C204.113 103.191 203.491 102.569 202.724 102.569H201.335ZM237.446 102.569C236.68 102.569 236.058 103.191 236.058 103.958V105.347C236.058 106.113 236.68 106.736 237.446 106.736H238.835C239.602 106.736 240.224 106.113 240.224 105.347V103.958C240.224 103.191 239.602 102.569 238.835 102.569H237.446ZM201.335 110.902C200.569 110.902 199.946 111.525 199.946 112.291V113.68C199.946 114.447 200.569 115.069 201.335 115.069H202.724C203.491 115.069 204.113 114.447 204.113 113.68V112.291C204.113 111.525 203.491 110.902 202.724 110.902H201.335ZM237.446 110.902C236.68 110.902 236.058 111.525 236.058 112.291V113.68C236.058 114.447 236.68 115.069 237.446 115.069H238.835C239.602 115.069 240.224 114.447 240.224 113.68V112.291C240.224 111.525 239.602 110.902 238.835 110.902H237.446ZM201.335 119.236C200.569 119.236 199.946 119.858 199.946 120.625V122.013C199.946 122.78 200.569 123.402 201.335 123.402H202.724C203.491 123.402 204.113 122.78 204.113 122.013V120.625C204.113 119.858 203.491 119.236 202.724 119.236H201.335ZM237.446 119.236C236.68 119.236 236.058 119.858 236.058 120.625V122.013C236.058 122.78 236.68 123.402 237.446 123.402H238.835C239.602 123.402 240.224 122.78 240.224 122.013V120.625C240.224 119.858 239.602 119.236 238.835 119.236H237.446Z" fill="#FEFEFE"/>
</svg>
