<svg width="277" height="207" viewBox="0 0 277 207" fill="none" xmlns="http://www.w3.org/2000/svg">
<path d="M258.511 40.6663C233.239 -24.4515 189.804 50.1212 112.821 9.80279C20.6802 -20.9928 12.3579 32.3719 12.3578 74.6357C12.3577 112.732 -33.4155 138.232 58.8197 187.302C137.973 229.411 201.755 191.21 244.183 151.313C283.865 113.998 283.783 105.784 258.511 40.6663Z" stroke="#0052CC"/>
<path d="M18.4892 165.638C43.7609 230.756 87.1964 156.183 164.179 196.502C256.32 227.297 264.642 173.933 264.642 131.669C264.642 93.5731 310.416 68.0722 218.18 19.0029C139.027 -23.1066 75.2447 15.0944 32.8166 54.9919C-6.86522 92.3068 -6.78255 100.521 18.4892 165.638Z" fill="#1170FF"/>
<path d="M28.5041 86.1723C28.5308 85.3457 28.7975 84.6723 29.3041 84.1523C29.8108 83.619 30.4441 83.3523 31.2041 83.3523C31.3108 83.3523 31.4575 83.3657 31.6441 83.3923C32.1641 82.219 32.7841 81.3123 33.5041 80.6723C34.2241 80.0323 34.9775 79.7123 35.7641 79.7123C36.5108 79.7123 37.1641 79.9523 37.7241 80.4323C38.2975 80.9123 38.7308 81.5323 39.0241 82.2923C39.3175 83.0523 39.4641 83.8457 39.4641 84.6723C39.4641 85.4857 39.3175 86.2323 39.0241 86.9123C38.7441 87.579 38.3175 88.0923 37.7441 88.4523C37.4241 88.6523 37.0441 88.7523 36.6041 88.7523C36.0575 88.7523 35.3641 88.599 34.5241 88.2923C33.6841 87.9723 32.6108 87.4657 31.3041 86.7723C31.2241 86.7457 31.1841 86.7723 31.1841 86.8523C31.1575 88.679 31.2508 90.6457 31.4641 92.7523C31.6775 94.859 31.7908 95.959 31.8041 96.0523L29.0041 96.6923C28.9241 95.9723 28.8175 94.639 28.6841 92.6923C28.5508 90.759 28.4841 89.0057 28.4841 87.4323C28.4841 86.859 28.4908 86.439 28.5041 86.1723ZM33.9241 84.4923C35.2708 85.3057 36.1975 85.7123 36.7041 85.7123C36.7975 85.7123 36.8708 85.6923 36.9241 85.6523C37.1241 85.4923 37.2241 85.2057 37.2241 84.7923C37.2241 84.2857 37.0841 83.8123 36.8041 83.3723C36.5241 82.9323 36.1575 82.7123 35.7041 82.7123C35.1708 82.7123 34.5775 83.3057 33.9241 84.4923ZM46.5124 88.6523C45.5658 88.6523 44.7924 88.3057 44.1924 87.6123C43.6058 86.919 43.1124 85.9457 42.7124 84.6923L44.7524 83.4523C44.9391 84.1323 45.1591 84.6123 45.4124 84.8923C45.6791 85.159 46.0458 85.2923 46.5124 85.2923H46.7124L46.8924 86.9723L46.7124 88.6523H46.5124ZM38.2324 91.6923C39.1124 91.319 39.9258 90.8923 40.6724 90.4123C41.4191 89.9457 42.0058 89.4857 42.4324 89.0323C42.8724 88.5923 43.0924 88.2323 43.0924 87.9523C43.0924 87.5123 42.7391 86.079 42.0324 83.6523L41.8924 83.1523L44.3724 82.1723C44.6924 83.0923 44.9458 84.0723 45.1324 85.1123C45.3191 86.1523 45.4124 87.099 45.4124 87.9523C45.4124 89.299 44.8924 90.5323 43.8524 91.6523C42.8124 92.7857 41.4058 93.739 39.6324 94.5123L38.2324 91.6923ZM46.4913 85.2923H46.9713C48.2247 85.2923 49.218 85.2523 49.9513 85.1723C50.6847 85.079 51.2713 84.919 51.7113 84.6923C52.1647 84.4523 52.5047 84.099 52.7313 83.6323C52.7447 83.2723 52.6447 82.9123 52.4313 82.5523C52.218 82.1923 51.9313 81.9857 51.5713 81.9323C51.518 81.919 51.4447 81.9123 51.3513 81.9123C50.9513 81.9123 50.6113 82.0657 50.3313 82.3723C50.0513 82.6657 49.8913 82.9923 49.8513 83.3523C49.8913 83.659 50.058 83.959 50.3513 84.2523C50.658 84.5457 51.0847 84.7923 51.6313 84.9923C52.1913 85.1923 52.8447 85.2923 53.5913 85.2923H56.0913L56.2713 86.9723L56.0913 88.6523H54.8913C53.4913 88.6523 52.2313 88.4257 51.1113 87.9723C49.9913 87.5057 49.1113 86.8923 48.4713 86.1323C47.8447 85.359 47.5313 84.5257 47.5313 83.6323C47.5313 83.499 47.5447 83.3123 47.5713 83.0723C47.6913 82.259 47.9447 81.5123 48.3313 80.8323C48.718 80.139 49.1913 79.5923 49.7513 79.1923C50.3113 78.7923 50.9047 78.5923 51.5313 78.5923C52.238 78.5923 52.858 78.819 53.3913 79.2723C53.9247 79.7257 54.3313 80.3057 54.6113 81.0123C54.9047 81.7057 55.0513 82.419 55.0513 83.1523C55.0513 83.4723 55.038 83.7057 55.0113 83.8523C54.7713 85.5057 53.9913 86.719 52.6713 87.4923C51.3513 88.2657 49.4513 88.6523 46.9713 88.6523H46.4913V85.2923ZM49.3313 75.5123C49.3313 75.5123 49.7713 75.0723 50.6513 74.1923L51.3313 73.5123L53.3113 75.5123L51.3313 77.4923L49.3313 75.5123ZM55.8477 85.2923H55.9477C57.0011 85.2923 57.8144 85.2457 58.3877 85.1523C58.9611 85.059 59.3611 84.9123 59.5877 84.7123C59.8277 84.5123 59.9611 84.239 59.9877 83.8923C60.0277 83.3457 59.9611 82.619 59.7877 81.7123L62.0677 81.2723C62.2544 82.2723 62.3477 83.379 62.3477 84.5923C62.3744 84.7523 62.4944 84.9123 62.7077 85.0723C62.9344 85.219 63.2744 85.2923 63.7277 85.2923H63.8277L64.0077 86.9723L63.8277 88.6523H63.7277C63.1144 88.6523 62.5477 88.499 62.0277 88.1923C61.5211 87.8723 61.0944 87.459 60.7477 86.9523L61.2877 87.0723C60.8744 87.6323 60.2677 88.039 59.4677 88.2923C58.6677 88.5323 57.4944 88.6523 55.9477 88.6523H55.8477V85.2923ZM57.2877 76.3523L59.0477 78.1323L57.2877 79.9123L56.6877 79.3123C55.9011 78.5257 55.5077 78.1323 55.5077 78.1323L57.2877 76.3523ZM60.7677 76.3523L62.5277 78.1323L60.7677 79.9123L60.1677 79.3123C59.3811 78.5257 58.9877 78.1323 58.9877 78.1323L60.7677 76.3523ZM69.9007 85.2923L70.0807 86.9723L69.9007 88.6523H69.7007C69.034 88.6523 68.4007 88.439 67.8007 88.0123C67.214 87.5723 66.734 86.9857 66.3607 86.2523C66.0007 85.5057 65.814 84.6857 65.8007 83.7923C65.7607 82.859 65.674 81.299 65.5407 79.1123C65.4207 76.9123 65.3074 75.279 65.2007 74.2123L68.0007 73.5723C68.1074 74.799 68.2207 77.1457 68.3407 80.6123C68.4207 82.6123 68.4674 83.679 68.4807 83.8123C68.5074 84.3457 68.6207 84.7257 68.8207 84.9523C69.034 85.179 69.3274 85.2923 69.7007 85.2923H69.9007ZM63.6207 85.2923H64.0007C64.654 85.2923 65.1207 85.1857 65.4007 84.9723C65.6807 84.7457 65.814 84.3523 65.8007 83.7923L67.7807 84.0323C67.7807 84.899 67.634 85.6857 67.3407 86.3923C67.0474 87.0857 66.614 87.639 66.0407 88.0523C65.4807 88.4523 64.8207 88.6523 64.0607 88.6523H63.6207V85.2923ZM69.7145 85.2923H70.7145C71.9945 85.2923 72.9011 85.1857 73.4345 84.9723C73.9811 84.759 74.2545 84.4457 74.2545 84.0323C74.2545 83.779 74.1078 83.2523 73.8145 82.4523C73.5211 81.639 73.3011 81.079 73.1545 80.7723L75.4745 79.4923C75.7411 80.0523 76.0078 80.799 76.2745 81.7323C76.5545 82.6657 76.6945 83.4923 76.6945 84.2123C76.6945 85.639 76.2345 86.739 75.3145 87.5123C74.3945 88.2723 73.0411 88.6523 71.2545 88.6523H69.7145V85.2923ZM73.9545 90.0323L75.6345 91.7123L73.9545 93.3923L72.2745 91.7123L73.9545 90.0323ZM70.1345 90.0323L71.8145 91.7123L70.1345 93.3923L68.4545 91.7123L70.1345 90.0323ZM72.0345 92.6723C72.5411 93.1523 73.0345 93.6457 73.5145 94.1523L72.0345 95.6123C71.7145 95.279 71.2211 94.7923 70.5545 94.1523L72.0345 92.6723ZM84.9946 73.5523C85.1546 74.7123 85.2746 76.2323 85.3546 78.1123C85.4479 79.979 85.4946 81.699 85.4946 83.2723C85.4946 83.8057 85.5413 84.219 85.6346 84.5123C85.7279 84.7923 85.8879 84.9923 86.1146 85.1123C86.3413 85.2323 86.6746 85.2923 87.1146 85.2923H87.1946L87.3746 86.9723L87.1946 88.6523H87.1146C85.6213 88.6523 84.5346 88.219 83.8546 87.3523C83.1746 86.4723 82.8279 85.159 82.8146 83.4123C82.7613 79.5323 82.5679 76.4523 82.2346 74.1723L84.9946 73.5523ZM87.0391 85.2923H88.7791C90.2458 85.2923 91.3858 85.1323 92.1991 84.8123C93.0258 84.479 93.4525 84.0657 93.4791 83.5723C93.4791 83.2523 93.3258 82.879 93.0191 82.4523C92.7125 82.0123 92.3391 81.6857 91.8991 81.4723C91.5391 81.9923 91.2191 82.739 90.9391 83.7123C90.6725 84.6857 90.5191 85.659 90.4791 86.6323C90.4525 87.339 90.5658 87.979 90.8191 88.5523C91.0725 89.1123 91.4191 89.5457 91.8591 89.8523C92.2991 90.1723 92.7658 90.3323 93.2591 90.3323C93.4458 90.3323 93.6525 90.299 93.8791 90.2323C93.8925 90.2057 93.8991 90.1457 93.8991 90.0523C93.8991 89.7323 93.7325 89.3657 93.3991 88.9523C93.0658 88.539 92.5191 88.1857 91.7591 87.8923L92.3391 84.9123C93.0325 85.0723 93.7058 85.179 94.3591 85.2323C95.0125 85.2723 95.9191 85.2923 97.0791 85.2923L97.2591 86.9723L97.0791 88.6523C96.0125 88.6523 95.0991 88.599 94.3391 88.4923C93.5925 88.3723 92.7325 88.1723 91.7591 87.8923L92.2791 85.4723C93.0391 85.6857 93.7191 86.0657 94.3191 86.6123C94.9325 87.1457 95.4125 87.759 95.7591 88.4523C96.1058 89.1457 96.2791 89.8257 96.2791 90.4923C96.2791 91.439 95.9458 92.179 95.2791 92.7123C94.6658 93.2057 93.9325 93.4523 93.0791 93.4523C92.2791 93.4523 91.4991 93.219 90.7391 92.7523C89.9925 92.2857 89.3791 91.5857 88.8991 90.6523C88.4191 89.719 88.1791 88.579 88.1791 87.2323C88.1791 86.8857 88.1858 86.6257 88.1991 86.4523C88.4258 83.359 89.2458 80.7323 90.6591 78.5723L92.3191 78.1323C93.2791 78.6657 94.0591 79.439 94.6591 80.4523C95.2725 81.4657 95.5791 82.5057 95.5791 83.5723C95.5791 85.2523 94.9058 86.519 93.5591 87.3723C92.2258 88.2123 90.3591 88.6457 87.9591 88.6723H87.0391V85.2923ZM96.8629 85.2923H96.9829C98.0096 85.279 98.7429 85.1657 99.1829 84.9523C99.6229 84.739 99.8629 84.3857 99.9029 83.8923C99.9429 83.3457 99.8762 82.619 99.7029 81.7123L101.983 81.2723C102.17 82.3657 102.263 83.4723 102.263 84.5923C102.29 84.739 102.416 84.8923 102.643 85.0523C102.87 85.2123 103.203 85.2923 103.643 85.2923H103.743L103.923 86.9723L103.743 88.6523H103.643C103.03 88.6523 102.463 88.499 101.943 88.1923C101.436 87.8723 101.01 87.459 100.663 86.9523L101.243 87.0123C100.456 88.1057 99.0362 88.6523 96.9829 88.6523H96.8629V85.2923ZM97.5029 77.9523C97.5029 77.9523 97.9429 77.5123 98.8229 76.6323L99.5029 75.9523L101.483 77.9523L99.5029 79.9323L97.5029 77.9523ZM103.562 85.2923H104.562C105.842 85.2923 106.749 85.1857 107.282 84.9723C107.829 84.759 108.102 84.4457 108.102 84.0323C108.102 83.779 107.955 83.2523 107.662 82.4523C107.369 81.639 107.149 81.079 107.002 80.7723L109.322 79.4923C109.589 80.0523 109.855 80.799 110.122 81.7323C110.402 82.6657 110.542 83.4923 110.542 84.2123C110.542 85.639 110.082 86.739 109.162 87.5123C108.242 88.2723 106.889 88.6523 105.102 88.6523H103.562V85.2923ZM105.422 75.3123L107.182 77.0923L105.422 78.8723L104.822 78.2723C104.035 77.4857 103.642 77.0923 103.642 77.0923L105.422 75.3123ZM108.902 75.3123L110.662 77.0923L108.902 78.8723L108.302 78.2723C107.515 77.4857 107.122 77.0923 107.122 77.0923L108.902 75.3123ZM115.69 91.6123C117.25 91.279 118.503 90.919 119.45 90.5323C120.41 90.1457 121.116 89.6923 121.57 89.1723C122.023 88.6523 122.25 88.0323 122.25 87.3123C122.25 86.5123 122.136 85.739 121.91 84.9923C121.696 84.2457 121.403 83.6457 121.03 83.1923C120.656 82.7257 120.25 82.4923 119.81 82.4923C119.556 82.4923 119.316 82.5857 119.09 82.7723C118.863 82.9457 118.683 83.1657 118.55 83.4323C118.43 83.699 118.37 83.9457 118.37 84.1723C118.37 84.3723 118.416 84.5257 118.51 84.6323C118.723 84.8723 119.096 85.0657 119.63 85.2123C120.163 85.3457 120.763 85.4123 121.43 85.4123C121.923 85.4123 122.41 85.3723 122.89 85.2923V88.4323C122.236 88.6057 121.543 88.6923 120.81 88.6923C119.81 88.6923 118.923 88.5123 118.15 88.1523C117.376 87.7923 116.823 87.259 116.49 86.5523C116.25 86.0057 116.13 85.4057 116.13 84.7523C116.13 83.9257 116.303 83.1123 116.65 82.3123C116.996 81.499 117.47 80.8323 118.07 80.3123C118.683 79.7923 119.356 79.5323 120.09 79.5323C120.903 79.5323 121.643 79.879 122.31 80.5723C122.99 81.2657 123.523 82.1857 123.91 83.3323C124.296 84.4657 124.49 85.679 124.49 86.9723C124.49 88.2523 124.176 89.4057 123.55 90.4323C122.923 91.4723 122.03 92.339 120.87 93.0323C119.71 93.7257 118.33 94.219 116.73 94.5123L115.69 91.6123ZM137.555 88.9123C137.528 88.1657 137.515 87.6057 137.515 87.2323C137.515 86.8457 137.528 86.279 137.555 85.5323C139.342 85.5323 140.702 85.4323 141.635 85.2323C142.582 85.0323 143.295 84.699 143.775 84.2323C144.268 83.7657 144.695 83.0657 145.055 82.1323L147.315 82.3923C147.062 83.1523 146.935 83.7523 146.935 84.1923C146.935 84.579 147.028 84.859 147.215 85.0323C147.415 85.1923 147.715 85.2723 148.115 85.2723L148.295 86.9723L148.115 88.6523C147.582 88.6523 147.075 88.5323 146.595 88.2923C146.128 88.039 145.755 87.699 145.475 87.2723C145.195 86.8457 145.062 86.3657 145.075 85.8323L145.475 85.9323C144.608 87.0657 143.555 87.8457 142.315 88.2723C141.088 88.699 139.502 88.9123 137.555 88.9123ZM132.715 81.4123C132.382 82.4923 132.215 83.2923 132.215 83.8123C132.215 84.1057 132.428 84.3857 132.855 84.6523C133.295 84.919 133.928 85.1323 134.755 85.2923C135.595 85.4523 136.588 85.5323 137.735 85.5323C137.775 86.1457 137.795 86.7457 137.795 87.3323C137.795 87.8657 137.775 88.3923 137.735 88.9123C135.322 88.9257 133.422 88.5523 132.035 87.7923C130.648 87.0323 129.895 85.9723 129.775 84.6123C129.762 84.5057 129.755 84.3457 129.755 84.1323C129.755 83.5457 129.835 82.9123 129.995 82.2323C130.155 81.5523 130.355 80.9457 130.595 80.4123L132.715 81.4123ZM136.655 78.2123L138.415 79.9923L136.655 81.7723L136.055 81.1723C135.268 80.3857 134.875 79.9923 134.875 79.9923L136.655 78.2123ZM140.135 78.2123L141.895 79.9923L140.135 81.7723L139.535 81.1723C138.748 80.3857 138.355 79.9923 138.355 79.9923L140.135 78.2123ZM147.957 85.2923H148.057C149.11 85.2923 149.924 85.2457 150.497 85.1523C151.07 85.059 151.47 84.9123 151.697 84.7123C151.937 84.5123 152.07 84.239 152.097 83.8923C152.137 83.3457 152.07 82.619 151.897 81.7123L154.177 81.2723C154.364 82.2723 154.457 83.379 154.457 84.5923C154.484 84.7523 154.604 84.9123 154.817 85.0723C155.044 85.219 155.384 85.2923 155.837 85.2923H155.937L156.117 86.9723L155.937 88.6523H155.837C155.224 88.6523 154.657 88.499 154.137 88.1923C153.63 87.8723 153.204 87.459 152.857 86.9523L153.397 87.0723C152.984 87.6323 152.377 88.039 151.577 88.2923C150.777 88.5323 149.604 88.6523 148.057 88.6523H147.957V85.2923ZM147.817 90.2923L149.577 92.0723L147.817 93.8523L147.217 93.2523C146.817 92.8657 146.424 92.4723 146.037 92.0723L147.817 90.2923ZM151.297 90.2923L153.057 92.0723L151.297 93.8523L150.697 93.2523C150.297 92.8657 149.904 92.4723 149.517 92.0723L151.297 90.2923ZM155.73 85.2923H156.35C157.003 85.2923 157.483 85.1657 157.79 84.9123C158.097 84.6457 158.25 84.2523 158.25 83.7323C158.25 82.8657 158.177 81.2857 158.03 78.9923C157.883 76.6857 157.75 75.079 157.63 74.1723L160.43 73.5523C160.523 74.379 160.623 75.9923 160.73 78.3923C160.85 80.7923 160.91 82.4923 160.91 83.4923C160.91 84.439 160.717 85.3057 160.33 86.0923C159.943 86.879 159.403 87.5057 158.71 87.9723C158.03 88.4257 157.263 88.6523 156.41 88.6523H155.73V85.2923ZM162.389 91.6123C163.949 91.279 165.202 90.919 166.149 90.5323C167.109 90.1457 167.816 89.6923 168.269 89.1723C168.722 88.6523 168.949 88.0323 168.949 87.3123C168.949 86.5123 168.836 85.739 168.609 84.9923C168.396 84.2457 168.102 83.6457 167.729 83.1923C167.356 82.7257 166.949 82.4923 166.509 82.4923C166.256 82.4923 166.016 82.5857 165.789 82.7723C165.562 82.9457 165.382 83.1657 165.249 83.4323C165.129 83.699 165.069 83.9457 165.069 84.1723C165.069 84.3723 165.116 84.5257 165.209 84.6323C165.422 84.8723 165.796 85.0657 166.329 85.2123C166.862 85.3457 167.462 85.4123 168.129 85.4123C168.622 85.4123 169.109 85.3723 169.589 85.2923V88.4323C168.936 88.6057 168.242 88.6923 167.509 88.6923C166.509 88.6923 165.622 88.5123 164.849 88.1523C164.076 87.7923 163.522 87.259 163.189 86.5523C162.949 86.0057 162.829 85.4057 162.829 84.7523C162.829 83.9257 163.002 83.1123 163.349 82.3123C163.696 81.499 164.169 80.8323 164.769 80.3123C165.382 79.7923 166.056 79.5323 166.789 79.5323C167.602 79.5323 168.342 79.879 169.009 80.5723C169.689 81.2657 170.222 82.1857 170.609 83.3323C170.996 84.4657 171.189 85.679 171.189 86.9723C171.189 88.2523 170.876 89.4057 170.249 90.4323C169.622 91.4723 168.729 92.339 167.569 93.0323C166.409 93.7257 165.029 94.219 163.429 94.5123L162.389 91.6123ZM173.181 88.5323C173.328 87.6523 173.401 86.2523 173.401 84.3323C173.401 82.4923 173.335 80.5657 173.201 78.5523C173.081 76.5257 172.941 75.0657 172.781 74.1723L175.581 73.5523C175.715 74.3923 175.828 75.7657 175.921 77.6723C176.028 79.5657 176.081 81.439 176.081 83.2923C176.081 85.6657 175.988 87.5057 175.801 88.8123L173.181 88.5323ZM83.7923 136.492C82.5789 136.492 81.4856 136.266 80.5123 135.812C79.5523 135.359 78.7923 134.686 78.2323 133.792C77.6856 132.899 77.4123 131.819 77.4123 130.552C77.4123 130.259 77.4189 130.032 77.4323 129.872C77.5256 128.606 77.9856 127.059 78.8123 125.232L80.9323 126.212C80.5723 127.052 80.3056 127.752 80.1323 128.312C79.9589 128.859 79.8723 129.446 79.8723 130.072C79.8723 132.099 81.1789 133.112 83.7923 133.112C84.8189 133.112 85.7589 132.966 86.6123 132.672C87.4656 132.392 88.0589 132.066 88.3923 131.692C88.0989 131.466 87.5723 131.159 86.8123 130.772C86.0656 130.399 85.2856 130.072 84.4723 129.792L85.1923 126.632C86.3789 126.859 87.4056 127.026 88.2723 127.132C89.1389 127.226 89.9989 127.279 90.8523 127.292H91.0923L91.2723 128.972L91.0923 130.652H90.8523C89.9456 130.639 88.9789 130.559 87.9523 130.412C86.9389 130.252 85.7856 130.046 84.4923 129.792L85.2123 127.772C85.2523 127.786 85.7189 127.972 86.6123 128.332C87.5189 128.692 88.4189 129.219 89.3123 129.912C90.2056 130.606 90.6523 131.272 90.6523 131.912C90.6523 132.592 90.3523 133.286 89.7523 133.992C89.1523 134.712 88.3256 135.306 87.2723 135.772C86.2189 136.252 85.0589 136.492 83.7923 136.492ZM97.1468 127.292L97.3268 128.972L97.1468 130.652H96.9468C96.2801 130.652 95.6468 130.439 95.0468 130.012C94.4601 129.572 93.9801 128.986 93.6068 128.252C93.2468 127.506 93.0601 126.686 93.0468 125.792C93.0068 124.859 92.9201 123.299 92.7868 121.112C92.6668 118.912 92.5535 117.279 92.4468 116.212L95.2468 115.572C95.3535 116.799 95.4668 119.146 95.5868 122.612C95.6668 124.612 95.7135 125.679 95.7268 125.812C95.7535 126.346 95.8668 126.726 96.0668 126.952C96.2801 127.179 96.5735 127.292 96.9468 127.292H97.1468ZM90.8668 127.292H91.2468C91.9001 127.292 92.3668 127.186 92.6468 126.972C92.9268 126.746 93.0601 126.352 93.0468 125.792L95.0268 126.032C95.0268 126.899 94.8801 127.686 94.5868 128.392C94.2935 129.086 93.8601 129.639 93.2868 130.052C92.7268 130.452 92.0668 130.652 91.3068 130.652H90.8668V127.292ZM101.101 125.852C101.927 126.426 102.681 126.879 103.361 127.212C104.041 127.546 104.534 127.712 104.841 127.712C104.934 127.712 105.007 127.692 105.061 127.652C105.167 127.572 105.247 127.459 105.301 127.312C105.367 127.152 105.401 126.972 105.401 126.772C105.401 126.266 105.254 125.799 104.961 125.372C104.681 124.932 104.314 124.712 103.861 124.712C103.127 124.712 102.327 125.752 101.461 127.832C101.074 128.779 100.521 129.486 99.8005 129.952C99.0805 130.419 98.2605 130.652 97.3405 130.652H96.9605L97.0205 127.292H97.4005C98.3872 127.292 99.2272 126.659 99.9205 125.392C100.601 124.139 101.247 123.212 101.861 122.612C102.487 122.012 103.181 121.712 103.941 121.712C104.687 121.712 105.341 121.952 105.901 122.432C106.461 122.899 106.887 123.519 107.181 124.292C107.474 125.052 107.621 125.846 107.621 126.672C107.621 127.486 107.474 128.232 107.181 128.912C106.901 129.579 106.474 130.092 105.901 130.452C105.594 130.652 105.201 130.752 104.721 130.752C103.521 130.752 101.894 130.052 99.8405 128.652L101.101 125.852ZM111.967 115.552C112.127 116.712 112.247 118.232 112.327 120.112C112.421 121.979 112.467 123.699 112.467 125.272C112.467 125.806 112.514 126.219 112.607 126.512C112.701 126.792 112.861 126.992 113.087 127.112C113.314 127.232 113.647 127.292 114.087 127.292H114.167L114.347 128.972L114.167 130.652H114.087C112.594 130.652 111.507 130.219 110.827 129.352C110.147 128.472 109.801 127.159 109.787 125.412C109.734 121.532 109.541 118.452 109.207 116.172L111.967 115.552ZM113.992 127.292H114.572C116.985 127.292 118.798 126.986 120.012 126.372C121.225 125.759 122.032 125.052 122.432 124.252C122.298 124.052 122.052 123.899 121.692 123.792C121.332 123.672 120.918 123.612 120.452 123.612C119.998 123.612 119.545 123.666 119.092 123.772C118.652 123.879 118.272 124.032 117.952 124.232C118.965 125.312 120.018 126.092 121.112 126.572C122.205 127.052 123.505 127.292 125.012 127.292H125.672L125.852 128.972L125.672 130.652H125.012C123.545 130.652 122.278 130.479 121.212 130.132C120.145 129.786 119.125 129.206 118.152 128.392C117.178 127.566 116.092 126.392 114.892 124.872L114.972 122.632C115.585 122.019 116.352 121.552 117.272 121.232C118.192 120.912 119.145 120.752 120.132 120.752C121.332 120.752 122.385 120.979 123.292 121.432C124.198 121.872 124.752 122.479 124.952 123.252C125.005 123.426 125.032 123.632 125.032 123.872C125.032 124.899 124.505 125.946 123.452 127.012C122.398 128.066 121.058 128.939 119.432 129.632C117.805 130.312 116.185 130.652 114.572 130.652H113.992V127.292ZM125.476 127.292H126.476C127.756 127.292 128.663 127.186 129.196 126.972C129.743 126.759 130.016 126.446 130.016 126.032C130.016 125.779 129.87 125.252 129.576 124.452C129.283 123.639 129.063 123.079 128.916 122.772L131.236 121.492C131.503 122.052 131.77 122.799 132.036 123.732C132.316 124.666 132.456 125.492 132.456 126.212C132.456 127.639 131.996 128.739 131.076 129.512C130.156 130.272 128.803 130.652 127.016 130.652H125.476V127.292ZM127.336 117.312L129.096 119.092L127.336 120.872L126.736 120.272C125.95 119.486 125.556 119.092 125.556 119.092L127.336 117.312ZM130.816 117.312L132.576 119.092L130.816 120.872L130.216 120.272C129.43 119.486 129.036 119.092 129.036 119.092L130.816 117.312ZM145.484 130.912C145.47 130.566 145.464 130.059 145.464 129.392C145.464 128.566 145.47 127.946 145.484 127.532C146.71 127.532 147.744 127.479 148.584 127.372C149.437 127.252 150.077 127.119 150.504 126.972C150.944 126.826 151.17 126.719 151.184 126.652C151.064 125.986 150.864 125.272 150.584 124.512C150.317 123.752 150.097 123.172 149.924 122.772L152.264 121.492C152.637 122.332 152.937 123.219 153.164 124.152C153.404 125.086 153.504 125.919 153.464 126.652C153.397 128.079 152.637 129.146 151.184 129.852C149.73 130.559 147.83 130.912 145.484 130.912ZM140.684 123.412C140.35 124.492 140.184 125.292 140.184 125.812C140.184 126.106 140.397 126.386 140.824 126.652C141.264 126.919 141.897 127.132 142.724 127.292C143.564 127.452 144.557 127.532 145.704 127.532C145.744 128.146 145.764 128.746 145.764 129.332C145.764 129.866 145.744 130.392 145.704 130.912C143.29 130.926 141.39 130.552 140.004 129.792C138.617 129.032 137.864 127.972 137.744 126.612C137.73 126.506 137.724 126.346 137.724 126.132C137.724 125.546 137.804 124.912 137.964 124.232C138.124 123.552 138.324 122.946 138.564 122.412L140.684 123.412ZM143.504 134.272C143.504 134.272 143.944 133.832 144.824 132.952L145.504 132.272L147.484 134.272L145.504 136.252L143.504 134.272ZM157.788 115.552C157.948 116.712 158.068 118.232 158.148 120.112C158.241 121.979 158.288 123.699 158.288 125.272C158.288 125.806 158.334 126.219 158.428 126.512C158.521 126.792 158.681 126.992 158.908 127.112C159.134 127.232 159.468 127.292 159.908 127.292H159.988L160.168 128.972L159.988 130.652H159.908C158.414 130.652 157.328 130.219 156.648 129.352C155.968 128.472 155.621 127.159 155.608 125.412C155.554 121.532 155.361 118.452 155.028 116.172L157.788 115.552ZM159.832 127.292H159.932C160.985 127.292 161.799 127.246 162.372 127.152C162.945 127.059 163.345 126.912 163.572 126.712C163.812 126.512 163.945 126.239 163.972 125.892C164.012 125.346 163.945 124.619 163.772 123.712L166.052 123.272C166.239 124.272 166.332 125.379 166.332 126.592C166.359 126.752 166.479 126.912 166.692 127.072C166.919 127.219 167.259 127.292 167.712 127.292H167.812L167.992 128.972L167.812 130.652H167.712C167.099 130.652 166.532 130.499 166.012 130.192C165.505 129.872 165.079 129.459 164.732 128.952L165.272 129.072C164.859 129.632 164.252 130.039 163.452 130.292C162.652 130.532 161.479 130.652 159.932 130.652H159.832V127.292ZM161.272 118.352L163.032 120.132L161.272 121.912L160.672 121.312C159.885 120.526 159.492 120.132 159.492 120.132L161.272 118.352ZM164.752 118.352L166.512 120.132L164.752 121.912L164.152 121.312C163.365 120.526 162.972 120.132 162.972 120.132L164.752 118.352ZM177.005 118.212L171.385 120.592C172.132 121.272 172.912 122.159 173.725 123.252C174.538 124.332 174.945 125.432 174.945 126.552C174.945 126.819 174.918 127.059 174.865 127.272C174.625 128.406 173.918 129.252 172.745 129.812C171.572 130.372 170.105 130.652 168.345 130.652H167.605V127.292H168.345C169.412 127.292 170.305 127.212 171.025 127.052C171.758 126.892 172.258 126.686 172.525 126.432C171.965 124.992 170.572 123.359 168.345 121.532L168.625 118.652L176.085 115.532L177.005 118.212Z" fill="#FEFEFE"/>
<circle opacity="0.15" cx="241" cy="87.1523" r="23.5" fill="#B1E9DB"/>
<path d="M199.077 80.1523C195.728 80.1523 193.002 82.9006 193.002 86.2777V114.863C193.002 118.24 195.728 120.988 199.077 120.988H224.624L220.574 116.904H199.077C197.961 116.904 197.052 115.988 197.052 114.863V86.2777C197.052 85.152 197.961 84.2359 199.077 84.2359H240.927C242.043 84.2359 242.952 85.152 242.952 86.2777V113.395L246.583 117.053C246.845 116.371 247.002 115.637 247.002 114.863V86.2777C247.002 82.9006 244.276 80.1523 240.927 80.1523H199.077ZM203.095 88.2902C202.559 88.2987 202.047 88.5215 201.674 88.9098C201.3 89.2982 201.094 89.8202 201.102 90.3612V94.4448C201.098 94.7153 201.148 94.984 201.248 95.235C201.348 95.4861 201.496 95.7146 201.685 95.9073C201.873 96.1 202.098 96.253 202.345 96.3574C202.593 96.4619 202.859 96.5156 203.127 96.5156C203.395 96.5156 203.661 96.4619 203.909 96.3574C204.156 96.253 204.381 96.1 204.569 95.9073C204.757 95.7146 204.906 95.4861 205.006 95.235C205.106 94.984 205.156 94.7153 205.152 94.4448V90.3612C205.156 90.088 205.105 89.8167 205.003 89.5635C204.901 89.3102 204.75 89.0802 204.558 88.8871C204.366 88.694 204.138 88.5416 203.887 88.4391C203.635 88.3366 203.366 88.2859 203.095 88.2902ZM209.877 88.3195C208.759 88.3195 207.852 89.2328 207.852 90.3612V110.779C207.852 111.907 208.759 112.821 209.877 112.821H216.814C216.348 111.141 215.806 109.182 215.68 108.737H211.902V92.403H234.852V105.228L238.902 109.311V90.3612C238.902 89.2328 237.995 88.3195 236.877 88.3195H209.877ZM203.127 98.5283C202.59 98.5283 202.075 98.7435 201.695 99.1264C201.315 99.5093 201.102 100.029 201.102 100.57C201.102 101.112 201.315 101.631 201.695 102.014C202.075 102.397 202.59 102.612 203.127 102.612C203.664 102.612 204.179 102.397 204.559 102.014C204.939 101.631 205.152 101.112 205.152 100.57C205.152 100.029 204.939 99.5093 204.559 99.1264C204.179 98.7435 203.664 98.5283 203.127 98.5283ZM220.666 100.57C219.819 100.599 218.969 100.951 218.328 101.594L218.325 101.596H218.322C217.683 102.241 217.333 103.103 217.305 103.957C217.289 104.417 217.361 104.889 217.534 105.345L217.479 105.18L219.021 110.609V110.612C219.255 111.423 219.688 112.159 220.281 112.757L234.565 127.161C235.521 128.126 236.716 128.806 238.032 129.046C238.425 129.118 238.82 129.152 239.21 129.152C240.904 129.155 242.549 128.473 243.761 127.251C244.978 126.027 245.654 124.364 245.652 122.655C245.652 122.254 245.614 121.86 245.546 121.477V121.474V121.472C245.309 120.144 244.632 118.938 243.674 117.973L229.391 103.572C228.798 102.973 228.068 102.537 227.263 102.301H227.258L221.874 100.746L222.03 100.799C221.592 100.632 221.132 100.554 220.666 100.57ZM203.095 104.624C202.559 104.633 202.047 104.856 201.674 105.244C201.3 105.632 201.094 106.154 201.102 106.695V110.779C201.098 111.05 201.148 111.318 201.248 111.569C201.348 111.82 201.496 112.049 201.685 112.242C201.873 112.434 202.098 112.587 202.345 112.692C202.593 112.796 202.859 112.85 203.127 112.85C203.395 112.85 203.661 112.796 203.909 112.692C204.156 112.587 204.381 112.434 204.569 112.242C204.757 112.049 204.906 111.82 205.006 111.569C205.106 111.318 205.156 111.05 205.152 110.779V106.695C205.156 106.422 205.105 106.151 205.003 105.898C204.901 105.644 204.75 105.414 204.558 105.221C204.366 105.028 204.138 104.876 203.887 104.773C203.635 104.671 203.366 104.62 203.095 104.624ZM221.618 104.92L226.14 106.225C226.269 106.264 226.391 106.346 226.494 106.44L223.124 109.838C223.03 109.735 222.952 109.611 222.913 109.482L222.91 109.474L221.618 104.92ZM229.368 109.322L240.811 120.86C241.255 121.308 241.484 121.775 241.56 122.198C241.588 122.361 241.602 122.516 241.602 122.657V122.66C241.603 123.317 241.375 123.884 240.901 124.362H240.898C240.424 124.84 239.86 125.07 239.216 125.069H239.213H239.21C239.064 125.069 238.912 125.057 238.757 125.029H238.754C238.335 124.953 237.872 124.722 237.428 124.274L225.982 112.733L229.368 109.322ZM216.991 112.778C216.984 112.779 216.98 112.794 216.98 112.821H217.025C217.009 112.79 216.998 112.777 216.991 112.778Z" fill="#FEFEFE"/>
</svg>
