<svg width="277" height="207" viewBox="0 0 277 207" fill="none" xmlns="http://www.w3.org/2000/svg">
<path d="M258.511 40.6663C233.239 -24.4515 189.804 50.1212 112.821 9.80279C20.6802 -20.9928 12.3579 32.3719 12.3578 74.6357C12.3577 112.732 -33.4155 138.232 58.8197 187.302C137.973 229.411 201.755 191.21 244.183 151.313C283.865 113.998 283.783 105.784 258.511 40.6663Z" stroke="#1EB28F"/>
<path d="M18.4892 165.638C43.7609 230.756 87.1964 156.183 164.179 196.502C256.32 227.297 264.642 173.933 264.642 131.669C264.642 93.5731 310.416 68.0722 218.18 19.0029C139.027 -23.1066 75.2447 15.0944 32.8166 54.9919C-6.86522 92.3068 -6.78255 100.521 18.4892 165.638Z" fill="#23D0A6"/>
<path d="M95.2291 83.1923C94.8691 84.0057 94.5958 84.699 94.4091 85.2723C94.2358 85.8323 94.1491 86.419 94.1491 87.0323C94.1491 89.099 95.4625 90.1323 98.0891 90.1323C99.0891 90.1323 100.009 89.9723 100.849 89.6523C101.702 89.3457 102.329 88.9323 102.729 88.4123L102.329 88.3123C101.436 88.099 100.809 87.939 100.449 87.8323C99.3825 87.5123 98.6225 87.1323 98.1691 86.6923C97.7291 86.239 97.5091 85.5857 97.5091 84.7323C97.5091 83.6257 97.7891 82.5657 98.3491 81.5523C98.9091 80.5257 99.6491 79.699 100.569 79.0723C101.489 78.4457 102.462 78.1323 103.489 78.1323C103.902 78.1323 104.322 78.1923 104.749 78.3123C105.176 78.4323 105.462 78.579 105.609 78.7523L104.669 81.6723C104.549 81.619 104.362 81.579 104.109 81.5523C103.856 81.5123 103.629 81.4923 103.429 81.4923C102.656 81.4923 101.936 81.7123 101.269 82.1523C100.616 82.579 100.196 83.1123 100.009 83.7523C99.9825 83.8323 99.9691 83.8923 99.9691 83.9323C99.9691 84.1457 100.136 84.3323 100.469 84.4923C100.802 84.6523 101.396 84.8257 102.249 85.0123C103.489 85.279 104.322 85.6457 104.749 86.1123C105.176 86.5657 105.389 87.0923 105.389 87.6923C105.389 88.7057 105.062 89.659 104.409 90.5523C103.769 91.4457 102.889 92.159 101.769 92.6923C100.649 93.2257 99.4225 93.4923 98.0891 93.4923C96.8758 93.4923 95.7825 93.2657 94.8091 92.8123C93.8491 92.359 93.0891 91.679 92.5291 90.7723C91.9691 89.879 91.6891 88.7923 91.6891 87.5123C91.6891 87.2323 91.6958 87.019 91.7091 86.8723C91.8158 85.5523 92.2825 84.0057 93.1091 82.2323L95.2291 83.1923ZM110.014 73.5523C110.174 74.7123 110.294 76.2323 110.374 78.1123C110.467 79.979 110.514 81.699 110.514 83.2723C110.514 83.8057 110.561 84.219 110.654 84.5123C110.747 84.7923 110.907 84.9923 111.134 85.1123C111.361 85.2323 111.694 85.2923 112.134 85.2923H112.214L112.394 86.9723L112.214 88.6523H112.134C110.641 88.6523 109.554 88.219 108.874 87.3523C108.194 86.4723 107.847 85.159 107.834 83.4123C107.781 79.5323 107.587 76.4523 107.254 74.1723L110.014 73.5523ZM112.059 85.2923H112.379C114.525 85.2923 116.105 85.1523 117.119 84.8723C118.132 84.5923 118.692 84.1457 118.799 83.5323C118.852 83.1457 118.732 82.7723 118.439 82.4123C118.145 82.0523 117.785 81.8257 117.359 81.7323C117.305 81.719 117.232 81.7123 117.139 81.7123C116.725 81.7123 116.352 81.8657 116.019 82.1723C115.685 82.4657 115.519 82.8257 115.519 83.2523C115.519 83.679 115.819 84.079 116.419 84.4523C117.032 84.8123 117.772 85.1057 118.639 85.3323C119.519 85.5457 120.325 85.6523 121.059 85.6523C122.045 85.6523 122.605 85.4657 122.739 85.0923C122.779 84.9857 122.799 84.8923 122.799 84.8123C122.799 84.1723 121.992 83.5123 120.379 82.8323C118.765 82.1523 116.439 81.399 113.399 80.5723L114.639 77.4523C117.345 78.2523 119.465 79.019 120.999 79.7523C122.545 80.4723 123.632 81.2057 124.259 81.9523C124.885 82.6857 125.199 83.4923 125.199 84.3723C125.199 84.959 125.072 85.6457 124.819 86.4323C124.592 87.139 124.105 87.6723 123.359 88.0323C122.625 88.379 121.745 88.5523 120.719 88.5523C119.559 88.5523 118.385 88.3457 117.199 87.9323C116.025 87.5057 115.052 86.919 114.279 86.1723C113.505 85.4123 113.119 84.5723 113.119 83.6523C113.119 83.3457 113.152 83.079 113.219 82.8523C113.565 81.479 114.125 80.3923 114.899 79.5923C115.685 78.7923 116.579 78.4457 117.579 78.5523C118.179 78.6057 118.725 78.859 119.219 79.3123C119.725 79.7523 120.119 80.3123 120.399 80.9923C120.692 81.6723 120.839 82.3723 120.839 83.0923C120.839 83.359 120.819 83.6257 120.779 83.8923C120.592 85.1057 120.179 86.059 119.539 86.7523C118.899 87.4323 118.005 87.919 116.859 88.2123C115.712 88.5057 114.219 88.6523 112.379 88.6523H112.059V85.2923ZM149.903 85.2923C150.25 85.2923 150.53 85.1923 150.743 84.9923C150.97 84.779 151.083 84.519 151.083 84.2123C151.083 83.8923 150.95 83.359 150.683 82.6123C150.417 81.8523 150.183 81.239 149.983 80.7723L152.243 79.5323C152.497 80.0523 152.763 80.8057 153.043 81.7923C153.323 82.7657 153.463 83.619 153.463 84.3523C153.463 85.139 153.31 85.859 153.003 86.5123C152.71 87.1657 152.29 87.6857 151.743 88.0723C151.21 88.459 150.597 88.6523 149.903 88.6523H149.843V85.2923H149.903ZM144.463 88.6523V85.2923H144.583C145.237 85.2923 145.723 84.959 146.043 84.2923C146.283 83.8123 146.45 83.3323 146.543 82.8523C146.65 82.359 146.71 82.0857 146.723 82.0323L148.983 82.1323C148.837 82.959 148.763 83.5723 148.763 83.9723C148.763 84.3857 148.857 84.7123 149.043 84.9523C149.23 85.179 149.51 85.2923 149.883 85.2923H149.923L150.103 86.9723L149.923 88.6523H149.883C149.177 88.6523 148.57 88.4723 148.063 88.1123C147.57 87.739 147.203 87.219 146.963 86.5523L147.543 86.5323C147.103 87.239 146.643 87.7723 146.163 88.1323C145.683 88.479 145.137 88.6523 144.523 88.6523H144.463ZM142.763 83.4723C142.937 83.9657 143.09 84.3323 143.223 84.5723C143.37 84.8123 143.557 84.9923 143.783 85.1123C144.01 85.2323 144.323 85.2923 144.723 85.2923L144.563 88.6523C143.657 88.6523 142.883 88.2923 142.243 87.5723C141.617 86.839 141.13 85.8723 140.783 84.6723L142.763 83.4723ZM133.803 84.2323C133.443 85.1123 133.177 85.8323 133.003 86.3923C132.843 86.939 132.763 87.5257 132.763 88.1523C132.763 90.1657 134.07 91.1723 136.683 91.1723C137.577 91.1723 138.363 91.019 139.043 90.7123C139.737 90.419 140.27 90.0257 140.643 89.5323C141.03 89.039 141.223 88.5057 141.223 87.9323C141.223 87.3323 141.01 86.419 140.583 85.1923C140.157 83.9657 139.923 83.299 139.883 83.1923L142.223 81.9123C143.103 84.219 143.543 86.2257 143.543 87.9323C143.543 89.1457 143.25 90.2523 142.663 91.2523C142.077 92.2657 141.263 93.0657 140.223 93.6523C139.183 94.239 138.003 94.5323 136.683 94.5323C135.443 94.5323 134.337 94.299 133.363 93.8323C132.403 93.3657 131.65 92.679 131.103 91.7723C130.557 90.879 130.283 89.8123 130.283 88.5723C130.283 88.2923 130.29 88.079 130.303 87.9323C130.397 86.6123 130.863 85.059 131.703 83.2723L133.803 84.2323ZM167.549 88.6523C166.162 88.6523 165.155 88.2057 164.529 87.3123C163.902 86.419 163.555 85.1723 163.489 83.5723C163.475 83.159 163.542 82.7857 163.689 82.4523C163.835 82.1057 164.029 81.8323 164.269 81.6323C164.509 81.4323 164.735 81.3323 164.949 81.3323C165.095 81.3323 165.215 81.3923 165.309 81.5123C165.402 81.6323 165.449 81.8057 165.449 82.0323C165.475 82.939 165.549 83.6257 165.669 84.0923C165.789 84.5457 165.995 84.859 166.289 85.0323C166.582 85.2057 167.009 85.2923 167.569 85.2923H167.809V88.6523H167.549ZM164.889 73.5523C165.289 76.659 165.482 79.6123 165.469 82.4123C165.469 83.8123 165.035 85.0257 164.169 86.0523C163.302 87.0657 162.162 87.8457 160.749 88.3923C159.335 88.9257 157.809 89.2057 156.169 89.2323L155.369 86.1523C156.849 86.0457 158.109 85.8857 159.149 85.6723C160.202 85.459 161.069 85.099 161.749 84.5923C162.429 84.0723 162.769 83.3657 162.769 82.4723C162.755 81.1257 162.695 79.8523 162.589 78.6523C162.482 77.439 162.315 75.9457 162.089 74.1723L164.889 73.5523ZM157.429 75.3123C158.202 76.8723 158.782 78.339 159.169 79.7123C159.555 81.0723 159.749 82.2923 159.749 83.3723C159.749 84.4123 159.582 85.2723 159.249 85.9523L157.049 86.1923C157.275 85.7523 157.389 85.199 157.389 84.5323C157.389 83.6257 157.189 82.5457 156.789 81.2923C156.389 80.039 155.815 78.5857 155.069 76.9323L157.429 75.3123ZM177.005 76.2123L171.385 78.5923C172.132 79.2723 172.912 80.159 173.725 81.2523C174.538 82.3323 174.945 83.4323 174.945 84.5523C174.945 84.819 174.918 85.059 174.865 85.2723C174.625 86.4057 173.918 87.2523 172.745 87.8123C171.572 88.3723 170.105 88.6523 168.345 88.6523H167.605V85.2923H168.345C169.412 85.2923 170.305 85.2123 171.025 85.0523C171.758 84.8923 172.258 84.6857 172.525 84.4323C171.965 82.9923 170.572 81.359 168.345 79.5323L168.625 76.6523L176.085 73.5323L177.005 76.2123ZM73.0957 133.692C73.9757 133.319 74.789 132.892 75.5357 132.412C76.2824 131.946 76.869 131.486 77.2957 131.032C77.7357 130.592 77.9557 130.232 77.9557 129.952C77.9557 129.512 77.6024 128.079 76.8957 125.652L76.7557 125.152L79.2357 124.172C79.5557 125.092 79.809 126.072 79.9957 127.112C80.1824 128.152 80.2757 129.099 80.2757 129.952C80.2757 131.299 79.7557 132.532 78.7157 133.652C77.6757 134.786 76.269 135.739 74.4957 136.512L73.0957 133.692ZM81.7835 133.612C83.3435 133.279 84.5968 132.919 85.5435 132.532C86.5035 132.146 87.2102 131.692 87.6635 131.172C88.1168 130.652 88.3435 130.032 88.3435 129.312C88.3435 128.512 88.2302 127.739 88.0035 126.992C87.7902 126.246 87.4968 125.646 87.1235 125.192C86.7502 124.726 86.3435 124.492 85.9035 124.492C85.6502 124.492 85.4102 124.586 85.1835 124.772C84.9702 124.946 84.7968 125.166 84.6635 125.432C84.5435 125.699 84.4835 125.946 84.4835 126.172C84.4835 126.359 84.5235 126.512 84.6035 126.632C84.8302 126.899 85.3302 127.079 86.1035 127.172C86.8902 127.252 87.9902 127.292 89.4035 127.292H91.3435L91.5235 128.972L91.3435 130.652L88.7635 130.672C87.0568 130.672 85.6968 130.539 84.6835 130.272C83.6702 129.992 82.9702 129.419 82.5835 128.552C82.3435 128.006 82.2235 127.406 82.2235 126.752C82.2235 125.926 82.3968 125.112 82.7435 124.312C83.0902 123.499 83.5635 122.832 84.1635 122.312C84.7768 121.792 85.4502 121.532 86.1835 121.532C86.9968 121.532 87.7368 121.879 88.4035 122.572C89.0835 123.266 89.6168 124.186 90.0035 125.332C90.3902 126.466 90.5835 127.679 90.5835 128.972C90.5835 130.252 90.2702 131.406 89.6435 132.432C89.0168 133.472 88.1235 134.339 86.9635 135.032C85.8035 135.726 84.4235 136.219 82.8235 136.512L81.7835 133.612ZM106.402 127.292L106.582 128.972L106.402 130.652H106.182C103.168 130.639 101.288 129.519 100.542 127.292L102.222 125.712C102.288 125.926 102.448 126.152 102.702 126.392C102.955 126.632 103.288 126.846 103.702 127.032C104.128 127.206 104.608 127.292 105.142 127.292H106.402ZM91.0616 127.292H92.4416C94.0016 127.292 95.455 127.132 96.8016 126.812C98.1483 126.479 99.6283 125.886 101.242 125.032C102.415 124.406 103.215 124.032 103.642 123.912L103.742 126.452C103.048 126.332 102.382 126.166 101.742 125.952C101.102 125.726 100.322 125.379 99.4016 124.912C98.8683 124.646 98.3283 124.439 97.7816 124.292C97.2483 124.132 96.7683 124.052 96.3416 124.052C95.8616 124.052 95.435 124.179 95.0616 124.432C94.7016 124.686 94.415 124.966 94.2016 125.272L92.3416 123.892C93.3816 121.826 94.755 120.792 96.4616 120.792C97.035 120.792 97.5816 120.886 98.1016 121.072C98.635 121.259 99.4083 121.612 100.422 122.132C101.182 122.532 101.828 122.832 102.362 123.032C102.908 123.232 103.508 123.399 104.162 123.532L104.262 126.572C103.915 126.666 103.275 126.979 102.342 127.512L101.582 127.912C100.195 128.632 99.015 129.186 98.0416 129.572C97.0683 129.959 96.0883 130.232 95.1016 130.392C94.115 130.552 92.9616 130.639 91.6416 130.652H91.0616V127.292ZM110.339 125.852C111.165 126.426 111.919 126.879 112.599 127.212C113.279 127.546 113.772 127.712 114.079 127.712C114.172 127.712 114.245 127.692 114.299 127.652C114.405 127.572 114.485 127.459 114.539 127.312C114.605 127.152 114.639 126.972 114.639 126.772C114.639 126.266 114.492 125.799 114.199 125.372C113.919 124.932 113.552 124.712 113.099 124.712C112.365 124.712 111.565 125.752 110.699 127.832C110.312 128.779 109.759 129.486 109.039 129.952C108.319 130.419 107.499 130.652 106.579 130.652H106.199L106.259 127.292H106.639C107.625 127.292 108.465 126.659 109.159 125.392C109.839 124.139 110.485 123.212 111.099 122.612C111.725 122.012 112.419 121.712 113.179 121.712C113.925 121.712 114.579 121.952 115.139 122.432C115.699 122.899 116.125 123.519 116.419 124.292C116.712 125.052 116.859 125.846 116.859 126.672C116.859 127.486 116.712 128.232 116.419 128.912C116.139 129.579 115.712 130.092 115.139 130.452C114.832 130.652 114.439 130.752 113.959 130.752C112.759 130.752 111.132 130.052 109.079 128.652L110.339 125.852ZM129.298 119.332C129.405 120.359 129.505 121.206 129.598 121.872C129.758 123.446 129.878 124.499 129.958 125.032C130.052 125.712 130.152 126.206 130.258 126.512C130.378 126.819 130.538 127.026 130.738 127.132C130.938 127.239 131.245 127.292 131.658 127.292H132.038L132.218 128.972L132.038 130.652H131.658C130.432 130.652 129.492 130.259 128.838 129.472C128.185 128.672 127.738 127.346 127.498 125.492C127.272 123.972 127.018 122.099 126.738 119.872L129.298 119.332ZM128.918 129.272C128.038 129.552 127.185 129.692 126.358 129.692C125.132 129.692 124.125 129.399 123.338 128.812C122.552 128.212 122.158 127.386 122.158 126.332C122.158 126.199 122.172 125.999 122.198 125.732C122.372 124.599 122.932 123.646 123.878 122.872C124.838 122.086 126.058 121.406 127.538 120.832L128.158 123.752C127.305 123.939 126.492 124.232 125.718 124.632C124.958 125.032 124.578 125.406 124.578 125.752C124.578 125.979 124.732 126.179 125.038 126.352C125.358 126.526 125.765 126.612 126.258 126.612C126.872 126.612 127.552 126.459 128.298 126.152L128.918 129.272ZM131.824 127.292H132.264C133.224 127.292 134.064 126.659 134.784 125.392C135.464 124.179 136.124 123.266 136.764 122.652C137.417 122.026 138.104 121.712 138.824 121.712C139.664 121.712 140.344 121.972 140.864 122.492C141.397 122.999 141.857 123.779 142.244 124.832C142.59 125.792 142.857 126.446 143.044 126.792C143.244 127.126 143.47 127.292 143.724 127.292H143.984L144.164 128.972L143.984 130.652H143.724C143.35 130.652 142.984 130.559 142.624 130.372C142.264 130.172 141.944 129.892 141.664 129.532C141.437 129.932 141.137 130.239 140.764 130.452C140.43 130.652 140.044 130.752 139.604 130.752C138.59 130.752 137.23 130.226 135.524 129.172C135.11 129.666 134.617 130.039 134.044 130.292C133.484 130.532 132.87 130.652 132.204 130.652H131.824V127.292ZM136.944 126.512C137.584 126.992 138.217 127.339 138.844 127.552C139.47 127.766 139.984 127.872 140.384 127.872C140.504 127.872 140.584 127.866 140.624 127.852C140.53 127.106 140.324 126.399 140.004 125.732C139.684 125.052 139.257 124.712 138.724 124.712C138.177 124.712 137.584 125.312 136.944 126.512ZM143.777 127.292H144.397C145.05 127.292 145.53 127.166 145.837 126.912C146.144 126.646 146.297 126.252 146.297 125.732C146.297 124.866 146.224 123.286 146.077 120.992C145.93 118.686 145.797 117.079 145.677 116.172L148.477 115.552C148.57 116.379 148.67 117.992 148.777 120.392C148.897 122.792 148.957 124.492 148.957 125.492C148.957 126.439 148.764 127.306 148.377 128.092C147.99 128.879 147.45 129.506 146.757 129.972C146.077 130.426 145.31 130.652 144.457 130.652H143.777V127.292ZM153.354 115.552C153.514 116.712 153.634 118.232 153.714 120.112C153.807 121.979 153.854 123.699 153.854 125.272C153.854 125.806 153.901 126.219 153.994 126.512C154.087 126.792 154.247 126.992 154.474 127.112C154.701 127.232 155.034 127.292 155.474 127.292H155.554L155.734 128.972L155.554 130.652H155.474C153.981 130.652 152.894 130.219 152.214 129.352C151.534 128.472 151.187 127.159 151.174 125.412C151.121 121.532 150.927 118.452 150.594 116.172L153.354 115.552ZM161.227 123.512C161.934 124.552 162.507 125.339 162.947 125.872C163.4 126.406 163.807 126.779 164.167 126.992C164.527 127.192 164.914 127.292 165.327 127.292H165.687L165.867 128.972L165.687 130.652H165.327C164.7 130.652 164.1 130.466 163.527 130.092C162.967 129.719 162.394 129.166 161.807 128.432C161.22 127.699 160.514 126.692 159.687 125.412L161.227 123.512ZM164.427 118.212L158.807 120.592C159.554 121.272 160.334 122.159 161.147 123.252C161.96 124.332 162.367 125.432 162.367 126.552C162.367 126.819 162.34 127.059 162.287 127.272C162.047 128.406 161.34 129.252 160.167 129.812C158.994 130.372 157.527 130.652 155.767 130.652H155.027V127.292H155.767C156.834 127.292 157.727 127.212 158.447 127.052C159.18 126.892 159.68 126.686 159.947 126.432C159.387 124.992 157.994 123.359 155.767 121.532L156.047 118.652L163.507 115.532L164.427 118.212ZM169.655 125.852C170.482 126.426 171.235 126.879 171.915 127.212C172.595 127.546 173.089 127.712 173.395 127.712C173.489 127.712 173.562 127.692 173.615 127.652C173.722 127.572 173.802 127.459 173.855 127.312C173.922 127.152 173.955 126.972 173.955 126.772C173.955 126.266 173.809 125.799 173.515 125.372C173.235 124.932 172.869 124.712 172.415 124.712C171.682 124.712 170.882 125.752 170.015 127.832C169.629 128.779 169.075 129.486 168.355 129.952C167.635 130.419 166.815 130.652 165.895 130.652H165.515L165.575 127.292H165.955C166.942 127.292 167.782 126.659 168.475 125.392C169.155 124.139 169.802 123.212 170.415 122.612C171.042 122.012 171.735 121.712 172.495 121.712C173.242 121.712 173.895 121.952 174.455 122.432C175.015 122.899 175.442 123.519 175.735 124.292C176.029 125.052 176.175 125.846 176.175 126.672C176.175 127.486 176.029 128.232 175.735 128.912C175.455 129.579 175.029 130.092 174.455 130.452C174.149 130.652 173.755 130.752 173.275 130.752C172.075 130.752 170.449 130.052 168.395 128.652L169.655 125.852Z" fill="#FEFEFE"/>
<circle opacity="0.15" cx="227" cy="87.1523" r="23.5" fill="#E2FAF4"/>
<path d="M206.59 79.6523C204.326 79.6523 202.455 81.4957 202.455 83.7221V89.5361C202.455 91.1336 203.437 92.5062 204.818 93.1698V95.35C204.818 95.6739 204.91 95.9914 205.083 96.2668C205.256 96.5422 205.504 96.7648 205.798 96.9096C206.093 97.0543 206.422 97.1155 206.75 97.0864C207.078 97.0572 207.391 96.9388 207.654 96.7445L211.907 93.6058H218.997L223.25 96.7445C223.513 96.9388 223.826 97.0572 224.154 97.0864C224.482 97.1155 224.812 97.0543 225.106 96.9096C225.4 96.7648 225.648 96.5422 225.821 96.2668C225.994 95.9914 226.086 95.6739 226.086 95.35V93.1698C227.467 92.5062 228.45 91.1336 228.45 89.5361V83.7221C228.45 81.4957 226.578 79.6523 224.314 79.6523H206.59ZM206.59 83.1407H224.314C224.662 83.1407 224.905 83.3811 224.905 83.7221V89.5361C224.905 89.8771 224.662 90.1175 224.314 90.1175C223.844 90.1175 223.393 90.3013 223.061 90.6284C222.728 90.9555 222.542 91.3991 222.542 91.8616L220.652 90.4672C220.345 90.2404 219.971 90.1176 219.588 90.1175H211.317C210.933 90.1176 210.559 90.2404 210.253 90.4672L208.363 91.8616C208.363 91.3991 208.176 90.9555 207.843 90.6284C207.511 90.3013 207.06 90.1175 206.59 90.1175C206.243 90.1175 205.999 89.8771 205.999 89.5361V83.7221C205.999 83.3811 206.243 83.1407 206.59 83.1407ZM204.227 99.4198C202.208 99.4198 200.47 100.227 199.358 101.459C198.245 102.691 197.728 104.265 197.728 105.815C197.728 107.366 198.245 108.939 199.358 110.171C200.47 111.403 202.208 112.21 204.227 112.21C206.246 112.21 207.984 111.403 209.096 110.171C210.209 108.939 210.726 107.366 210.726 105.815C210.726 104.265 210.209 102.691 209.096 101.459C207.984 100.227 206.246 99.4198 204.227 99.4198ZM226.677 99.4198C224.659 99.4198 222.92 100.227 221.808 101.459C220.695 102.691 220.178 104.265 220.178 105.815C220.178 107.366 220.695 108.939 221.808 110.171C222.92 111.403 224.659 112.21 226.677 112.21C228.696 112.21 230.434 111.403 231.547 110.171C232.659 108.939 233.176 107.366 233.176 105.815C233.176 104.265 232.659 102.691 231.547 101.459C230.434 100.227 228.696 99.4198 226.677 99.4198ZM204.227 102.908C205.359 102.908 205.984 103.263 206.447 103.776C206.91 104.288 207.181 105.04 207.181 105.815C207.181 106.59 206.91 107.342 206.447 107.855C205.984 108.367 205.359 108.722 204.227 108.722C203.095 108.722 202.47 108.367 202.007 107.855C201.544 107.342 201.273 106.59 201.273 105.815C201.273 105.04 201.544 104.288 202.007 103.776C202.47 103.263 203.095 102.908 204.227 102.908ZM226.677 102.908C227.81 102.908 228.434 103.263 228.897 103.776C229.36 104.288 229.631 105.04 229.631 105.815C229.631 106.59 229.36 107.342 228.897 107.855C228.434 108.367 227.81 108.722 226.677 108.722C225.545 108.722 224.92 108.367 224.457 107.855C223.994 107.342 223.723 106.59 223.723 105.815C223.723 105.04 223.994 104.288 224.457 103.776C224.92 103.263 225.545 102.908 226.677 102.908ZM196.999 114.536C194.814 114.536 193.002 116.318 193.002 118.47V118.606C193.002 124.686 198.049 129.652 204.227 129.652C210.405 129.652 215.451 124.686 215.45 118.606V118.47C215.45 116.319 213.642 114.536 211.455 114.536H196.999ZM219.449 114.536C217.264 114.536 215.452 116.318 215.452 118.47V118.606C215.452 124.686 220.499 129.652 226.677 129.652C232.855 129.652 237.901 124.686 237.9 118.606V118.47C237.9 116.319 236.092 114.536 233.905 114.536H219.449ZM196.999 118.024H211.455C211.726 118.024 211.905 118.204 211.905 118.47V118.606C211.906 122.8 208.489 126.164 204.227 126.164C199.965 126.164 196.547 122.8 196.547 118.606V118.47C196.547 118.203 196.729 118.024 196.999 118.024ZM219.449 118.024H233.905C234.176 118.024 234.355 118.204 234.355 118.47V118.606C234.356 122.8 230.939 126.164 226.677 126.164C222.415 126.164 218.997 122.8 218.997 118.606V118.47C218.997 118.203 219.179 118.024 219.449 118.024Z" fill="#FEFEFE"/>
</svg>
