<svg width="74" height="75" viewBox="0 0 74 75" fill="none" xmlns="http://www.w3.org/2000/svg">
<circle cx="37" cy="37.915" r="32" fill="white"/>
<circle cx="37" cy="37.915" r="34.5" stroke="white" stroke-opacity="0.2" stroke-width="5"/>
<path d="M48.2493 38.5215H47.5V45.2715H48.4998C49.231 45.2715 49.8558 44.7442 49.9787 44.0235L50.4685 41.1495C50.7017 39.7755 49.6428 38.5215 48.2493 38.5215Z" fill="url(#paint0_linear_3087_12300)"/>
<path d="M25.7516 38.5215H26.5008V45.2715H25.5011C24.7698 45.2715 24.1451 44.7442 24.0221 44.0235L23.5323 41.1495C23.2991 39.7755 24.3581 38.5215 25.7516 38.5215Z" fill="url(#paint1_linear_3087_12300)"/>
<path d="M37 24.2715C31.4485 24.2715 25.75 26.5215 25.75 38.5215C25.75 39.4822 25.75 42.9615 25.75 43.9875C25.75 48.2715 32.5 53.5215 37 53.5215C41.5 53.5215 48.25 48.2715 48.25 43.9875C48.25 42.9615 48.25 39.4822 48.25 38.5215C48.25 26.5215 42.5515 24.2715 37 24.2715Z" fill="#FFCF54"/>
<path d="M37 22.7715C31.0135 22.7715 29.5 25.0215 29.5 25.0215C27.0663 25.3807 24.25 28.446 24.25 32.5215C24.25 34.7955 24.7397 35.8507 25.75 41.5215C26.5 32.5215 27.25 29.5215 28.75 29.5215C31 29.5215 31 31.0215 37.5835 31.0215C41.3507 31.0215 43 29.5215 44.5 29.5215C48.25 29.5215 48.25 40.1025 48.25 41.5215C48.8545 35.9677 49 34.5082 49 32.5215C49 27.8055 45.5373 22.7715 37 22.7715Z" fill="url(#paint2_radial_3087_12300)"/>
<path d="M37 50.5215H43.75C46.6495 50.5215 49 48.171 49 45.2715V31.0215C49 27.2932 45.9783 24.2715 42.25 24.2715H37.75" stroke="#5E6770" stroke-width="2" stroke-linecap="round"/>
<path d="M37 51.2715C38.2426 51.2715 39.25 50.2641 39.25 49.0215C39.25 47.7788 38.2426 46.7715 37 46.7715C35.7574 46.7715 34.75 47.7788 34.75 49.0215C34.75 50.2641 35.7574 51.2715 37 51.2715Z" fill="url(#paint3_linear_3087_12300)"/>
<path d="M49.75 45.2715H48.25V38.5215H49.75C50.5788 38.5215 51.25 39.1927 51.25 40.0215V43.7715C51.25 44.6002 50.5788 45.2715 49.75 45.2715Z" fill="url(#paint4_linear_3087_12300)"/>
<path d="M36.9993 22.0215C31.0128 22.0215 29.4993 25.0215 29.4993 25.0215C29.4393 26.6152 30.2493 28.0215 30.2493 28.0215C30.2493 28.0215 31.3443 30.2715 37.5828 30.2715C41.35 30.2715 46.7493 28.0237 46.7493 22.0215C46.7493 22.0215 45.5365 22.0215 36.9993 22.0215Z" fill="url(#paint5_radial_3087_12300)"/>
<defs>
<linearGradient id="paint0_linear_3087_12300" x1="48.2508" y1="41.8965" x2="50.146" y2="41.8965" gradientUnits="userSpaceOnUse">
<stop stop-color="#C48F0C"/>
<stop offset="0.251" stop-color="#D19B16"/>
<stop offset="0.619" stop-color="#DCA51F"/>
<stop offset="1" stop-color="#E0A922"/>
</linearGradient>
<linearGradient id="paint1_linear_3087_12300" x1="25.7508" y1="41.8965" x2="23.8548" y2="41.8965" gradientUnits="userSpaceOnUse">
<stop stop-color="#C48F0C"/>
<stop offset="0.251" stop-color="#D19B16"/>
<stop offset="0.619" stop-color="#DCA51F"/>
<stop offset="1" stop-color="#E0A922"/>
</linearGradient>
<radialGradient id="paint2_radial_3087_12300" cx="0" cy="0" r="1" gradientUnits="userSpaceOnUse" gradientTransform="translate(26.0395 24.2212) scale(32.0737)">
<stop stop-color="#C26715"/>
<stop offset="0.508" stop-color="#B85515"/>
<stop offset="1" stop-color="#AD3F16"/>
</radialGradient>
<linearGradient id="paint3_linear_3087_12300" x1="35.9027" y1="46.8907" x2="38.0282" y2="51.018" gradientUnits="userSpaceOnUse">
<stop stop-color="#8795A1"/>
<stop offset="1" stop-color="#6D7882"/>
</linearGradient>
<linearGradient id="paint4_linear_3087_12300" x1="47.728" y1="38.5395" x2="50.9658" y2="44.8252" gradientUnits="userSpaceOnUse">
<stop stop-color="#8795A1"/>
<stop offset="1" stop-color="#6D7882"/>
</linearGradient>
<radialGradient id="paint5_radial_3087_12300" cx="0" cy="0" r="1" gradientUnits="userSpaceOnUse" gradientTransform="translate(34.6233 26.655) scale(40.4857)">
<stop stop-color="#C26715"/>
<stop offset="0.508" stop-color="#B85515"/>
<stop offset="1" stop-color="#AD3F16"/>
</radialGradient>
</defs>
</svg>
