<svg width="40" height="36" viewBox="0 0 40 36" fill="none" xmlns="http://www.w3.org/2000/svg">
<rect width="40" height="36" rx="4" fill="#DDEBFF"/>
<path d="M14 9.49316C12.6282 9.49316 11.5 10.6213 11.5 11.9932C11.5 13.365 12.6282 14.4932 14 14.4932H26C27.3718 14.4932 28.5 13.365 28.5 11.9932C28.5 10.6213 27.3718 9.49316 26 9.49316H14ZM14 10.9932H26C26.5612 10.9932 27 11.432 27 11.9932C27 12.5543 26.5612 12.9932 26 12.9932H14C13.4388 12.9932 13 12.5543 13 11.9932C13 11.432 13.4388 10.9932 14 10.9932ZM14 15.4932C12.6282 15.4932 11.5 16.6213 11.5 17.9932C11.5 19.365 12.6282 20.4932 14 20.4932H26C27.3718 20.4932 28.5 19.365 28.5 17.9932C28.5 16.6213 27.3718 15.4932 26 15.4932H14ZM14 16.9932H26C26.5612 16.9932 27 17.432 27 17.9932C27 18.5543 26.5612 18.9932 26 18.9932H14C13.4388 18.9932 13 18.5543 13 17.9932C13 17.432 13.4388 16.9932 14 16.9932ZM14 21.4932C12.6282 21.4932 11.5 22.6213 11.5 23.9932C11.5 25.365 12.6282 26.4932 14 26.4932H26C27.3718 26.4932 28.5 25.365 28.5 23.9932C28.5 22.6213 27.3718 21.4932 26 21.4932H14ZM14 22.9932H26C26.5612 22.9932 27 23.432 27 23.9932C27 24.5543 26.5612 24.9932 26 24.9932H14C13.4388 24.9932 13 24.5543 13 23.9932C13 23.432 13.4388 22.9932 14 22.9932Z" fill="#0052CC"/>
</svg>
