<svg width="41" height="41" viewBox="0 0 41 41" fill="none" xmlns="http://www.w3.org/2000/svg">
<path d="M11.3333 35.6074H29.6667C32.8883 35.6074 35.5 32.9958 35.5 29.7741V11.4408C35.5 8.21909 32.8883 5.60742 29.6667 5.60742H11.3333C8.11167 5.60742 5.5 8.21909 5.5 11.4408V29.7741C5.5 32.9958 8.11167 35.6074 11.3333 35.6074Z" fill="#1EB38F"/>
<path d="M30.0411 26.4747L26.1978 23.9322C25.7286 23.648 25.142 23.643 24.6678 23.918C24.6678 23.918 24.6678 23.918 23.0195 24.8789C22.7986 25.0072 22.5861 25.0314 22.4145 24.9997C22.1961 24.9597 22.0461 24.8405 22.0361 24.8322C21.1303 24.168 20.072 23.2889 18.9436 22.1614C17.8161 21.0339 16.937 19.9755 16.2728 19.0689C16.2653 19.058 16.1453 18.908 16.1053 18.6905C16.0745 18.5189 16.0978 18.3072 16.2261 18.0855C17.187 16.4372 17.187 16.4372 17.187 16.4372C17.4628 15.963 17.457 15.3755 17.1728 14.9072L14.6303 11.0639C14.3153 10.588 13.6711 10.4622 13.202 10.7872C13.202 10.7872 11.9978 11.6114 11.6003 11.8914C10.9636 12.3397 10.7586 13.0214 10.7578 13.9714C10.7561 15.308 11.9078 19.4955 16.7586 24.3464C21.6103 29.198 25.797 30.3489 27.1336 30.3472C28.0836 30.3464 28.7653 30.1405 29.2136 29.5047C29.4936 29.1072 30.3178 27.903 30.3178 27.903C30.6428 27.4339 30.5178 26.7897 30.0411 26.4747Z" fill="white"/>
</svg>
