<svg width="24" height="24" viewBox="0 0 24 24" fill="none" xmlns="http://www.w3.org/2000/svg">
<path d="M11.457 3.31306L12.3165 5.34056C12.691 6.22406 12.4835 7.26306 11.8025 7.90906L10.1965 9.43306C10.0155 9.60506 9.92154 9.85456 9.96204 10.1006C10.117 11.0411 10.4605 11.9686 10.9925 12.8836C11.5235 13.7966 12.17 14.5736 12.9325 15.2141C13.1345 15.3836 13.415 15.4276 13.665 15.3441L15.5385 14.7191C16.401 14.4316 17.34 14.7621 17.869 15.5391L19.1015 17.3496C19.7165 18.2531 19.606 19.4991 18.843 20.2651L18.025 21.0861C17.211 21.9031 16.0485 22.1996 14.973 21.8641C12.434 21.0721 10.1 18.7211 7.97004 14.8106C5.83704 10.8946 5.08454 7.57156 5.71204 4.84256C5.97604 3.69406 6.79354 2.77956 7.86104 2.43856L8.93754 2.09456C9.94754 1.77306 11.025 2.29406 11.457 3.31306Z" fill="#0052CC"/>
</svg>
