<svg width="93" height="13" viewBox="0 0 93 13" fill="none" xmlns="http://www.w3.org/2000/svg">
<path d="M92.3634 11.1148C91.2495 10.8704 91.1448 9.37936 89.9785 9.2327C89.8528 8.70193 89.343 8.61813 88.9728 8.3737C88.7214 8.15022 88.47 7.92674 88.1138 8.19212V8.2026C88.0684 7.6439 87.5691 7.85341 87.2793 7.71025C87.1152 7.74167 87.1466 7.33662 86.9056 7.54613C86.2282 6.88617 85.3727 7.00489 84.5451 7.01537C84.4893 6.86172 84.7477 6.51254 84.4439 6.56143C83.3684 6.73253 82.5478 5.81766 81.5002 5.93987C81.3501 5.95733 81.1685 5.97479 81.0987 5.75131C80.9415 5.25198 80.8822 5.18563 80.4771 5.41959C79.9568 5.71989 79.5902 5.65005 79.2759 5.1577C79.3667 5.10881 79.5308 5.06691 79.5343 5.01453C79.5448 4.82946 79.3912 4.81899 79.248 4.83295C78.0468 4.37203 76.7723 4.21839 75.5222 3.94602C75.6409 3.85873 75.7596 3.76794 75.9063 3.65969C75.585 3.56192 75.3755 3.70159 75.159 3.80635C74.4222 3.66667 73.6086 3.71207 72.9522 3.45367C71.9046 3.04163 70.8256 2.81815 69.7536 2.61912C66.4503 2.00106 63.1121 1.63092 59.7564 1.36903C56.0027 1.07222 52.2489 0.866203 48.4882 0.764939C45.2059 0.67415 41.927 0.810333 38.6447 1.01984C36.553 1.15254 34.4579 1.26427 32.3663 1.43887C30.4283 1.59949 28.4903 1.76361 26.5733 2.10232C24.8413 2.40611 23.0779 2.52484 21.3704 2.96132C21.0666 2.9264 20.7594 2.86005 20.501 3.10099C20.2111 2.97878 19.9353 2.99624 19.614 3.02417C18.7899 3.09401 18.2417 3.9146 17.3792 3.79587C15.8288 3.58287 14.4391 4.26029 12.99 4.58154C9.60286 5.33578 6.46019 6.79189 3.26165 8.08388C3.01372 8.18514 2.91595 8.4156 2.8531 8.57972C2.55629 9.34444 2.41312 9.52601 1.59254 9.93107C1.20494 10.1231 0.730048 10.2069 0.496094 10.6574C0.960511 10.9542 1.25034 10.584 1.60301 10.4688C1.80205 10.406 2.09187 10.1196 2.26996 10.591C2.45503 11.0834 1.99061 10.9228 1.84744 11.0694C1.70079 11.2231 1.2643 10.9612 1.29224 11.3976C1.3097 11.7049 1.66936 11.684 1.84046 11.8586C1.99759 12.0192 2.30488 11.8621 2.44106 12.103C2.29091 12.1659 2.14425 12.2497 1.98363 12.2811C1.78459 12.3195 1.54714 12.3265 1.63444 12.6023C1.74618 12.9515 1.91379 12.6582 2.05695 12.6023C2.26647 12.5185 2.47947 12.4382 2.68898 12.3579C2.72739 12.3474 2.76929 12.33 2.8112 12.309C3.75051 11.8935 4.6968 11.4919 5.62564 11.0554C5.87356 10.9402 5.96085 10.9856 6.07259 11.2056C6.21576 11.4884 5.97133 11.443 5.85261 11.5059C5.45803 11.7154 5.06694 11.9249 4.67236 12.1309C4.63744 12.1763 4.61649 12.2182 4.6095 12.2601C4.39999 12.5465 3.87621 12.3335 3.70511 12.749C4.09969 12.8468 4.42094 12.7944 4.67585 12.4801C6.04117 11.911 7.49029 11.6456 8.90798 11.2615C9.2886 11.3837 8.45055 11.9214 9.13844 11.9389C9.47716 11.9354 9.87174 12.0471 10.1476 11.911C11.883 11.045 13.7721 10.7202 15.6193 10.2558C19.5093 9.27809 23.469 8.67749 27.4253 8.06292C30.1315 7.6439 32.8377 7.19345 35.5544 6.88268C39.0637 6.48111 42.587 6.13542 46.1172 6.03415C52.8076 5.84559 59.4911 6.02368 66.1605 6.57539C70.1342 6.90363 74.094 7.38201 77.9874 8.23403C81.9367 9.10001 86.0257 9.40729 89.7585 11.1462C89.9366 11.251 90.1147 11.3557 90.2962 11.4605C90.4359 11.5862 90.5756 11.7573 90.7816 11.6141C90.806 11.5967 90.7013 11.3872 90.6559 11.265C91.1238 11.2335 91.4101 11.6141 91.7977 11.7643C92.0003 11.8411 92.2761 11.9179 92.3669 11.6246C92.4123 11.478 92.6393 11.1846 92.3599 11.1218L92.3634 11.1148Z" fill="#E2FAF4"/>
</svg>
