<svg width="70" height="10" viewBox="0 0 70 10" fill="none" xmlns="http://www.w3.org/2000/svg">
<path d="M69.8971 8.45722C69.0496 8.27124 68.9699 7.13676 68.0825 7.02518C67.9868 6.62134 67.5989 6.55757 67.3173 6.37159C67.126 6.20155 66.9347 6.03151 66.6637 6.23343V6.24141C66.6292 5.81631 66.2492 5.97572 66.0287 5.86679C65.9039 5.8907 65.9278 5.58251 65.7444 5.74192C65.229 5.23977 64.5781 5.33011 63.9484 5.33808C63.9059 5.22118 64.1025 4.95549 63.8714 4.99269C63.053 5.12287 62.4287 4.42678 61.6316 4.51977C61.5174 4.53305 61.3792 4.54634 61.3261 4.3763C61.2065 3.99637 61.1614 3.94589 60.8532 4.1239C60.4573 4.35239 60.1783 4.29925 59.9392 3.92463C60.0083 3.88744 60.1332 3.85555 60.1358 3.8157C60.1438 3.67489 60.0269 3.66692 59.918 3.67755C59.004 3.32684 58.0343 3.20994 57.0831 3.00271C57.1734 2.93628 57.2638 2.86721 57.3754 2.78484C57.1309 2.71045 56.9715 2.81673 56.8068 2.89643C56.2462 2.79016 55.6272 2.8247 55.1277 2.62809C54.3306 2.31458 53.5096 2.14454 52.694 1.9931C50.1806 1.52284 47.6407 1.24121 45.0874 1.04195C42.2313 0.816119 39.3752 0.659364 36.5138 0.582316C34.0163 0.513238 31.5216 0.616855 29.0241 0.776266C27.4327 0.877226 25.8386 0.962245 24.2471 1.09509C22.7726 1.2173 21.298 1.34217 19.8394 1.59989C18.5216 1.83104 17.1799 1.92137 15.8807 2.25347C15.6495 2.22691 15.4157 2.17643 15.2191 2.35975C14.9986 2.26676 14.7887 2.28004 14.5443 2.3013C13.9173 2.35443 13.5002 2.97879 12.8439 2.88846C11.6643 2.72639 10.6068 3.24182 9.50425 3.48625C6.92711 4.06013 4.53595 5.16804 2.10227 6.15107C1.91364 6.22812 1.83924 6.40347 1.79142 6.52835C1.56559 7.1102 1.45666 7.24835 0.832298 7.55655C0.537387 7.70267 0.176056 7.76644 -0.00195312 8.10917C0.351408 8.335 0.571926 8.05338 0.840268 7.9657C0.991709 7.91788 1.21223 7.70002 1.34773 8.05869C1.48854 8.43331 1.13518 8.31109 1.02625 8.42268C0.91466 8.53958 0.582554 8.34032 0.603809 8.67242C0.617093 8.90623 0.890748 8.89028 1.02093 9.02313C1.14049 9.14534 1.37429 9.02578 1.47791 9.20911C1.36367 9.25693 1.25208 9.32069 1.12986 9.3446C0.978424 9.37383 0.797759 9.37914 0.86418 9.58904C0.949199 9.85472 1.07673 9.63155 1.18566 9.58904C1.34507 9.52527 1.50714 9.46416 1.66655 9.40306C1.69577 9.39509 1.72766 9.3818 1.75954 9.36586C2.47423 9.0497 3.19424 8.74416 3.90096 8.41205C4.08959 8.32438 4.15602 8.35891 4.24104 8.5263C4.34997 8.7415 4.16399 8.70696 4.07365 8.75479C3.77343 8.9142 3.47586 9.07361 3.17564 9.23036C3.14907 9.2649 3.13313 9.29678 3.12782 9.32866C2.9684 9.54653 2.56988 9.38446 2.43969 9.70062C2.73992 9.77501 2.98435 9.73516 3.1783 9.49605C4.21712 9.06298 5.31972 8.86106 6.3984 8.56881C6.68799 8.6618 6.05035 9.07095 6.57375 9.08423C6.83146 9.08158 7.13169 9.1666 7.34158 9.06298C8.66203 8.40408 10.0994 8.15699 11.5049 7.80363C14.4646 7.05972 17.4775 6.60274 20.4877 6.13513C22.5467 5.81631 24.6058 5.47358 26.6728 5.23712C29.3429 4.93158 32.0237 4.66855 34.7098 4.5915C39.8003 4.44803 44.8855 4.58353 49.9601 5.00331C52.9836 5.25306 55.9965 5.61705 58.9588 6.26532C61.9637 6.92422 65.0749 7.15802 67.9151 8.48113C68.0506 8.56083 68.1861 8.64054 68.3242 8.72025C68.4305 8.81589 68.5368 8.94608 68.6935 8.83715C68.7121 8.82386 68.6324 8.66445 68.5979 8.57146C68.9539 8.54755 69.1718 8.83715 69.4667 8.95139C69.6208 9.00984 69.8307 9.06829 69.8998 8.84512C69.9343 8.73353 70.107 8.51036 69.8944 8.46253L69.8971 8.45722Z" fill="#23D0A6"/>
</svg>
