<svg width="40" height="34" viewBox="0 0 40 34" fill="none" xmlns="http://www.w3.org/2000/svg">
<path d="M16.6016 33.3075C8.20313 27.706 0.601564 18.9091 0.398439 18.5106C1.36573e-06 18.1044 1.40057e-06 17.706 1.45316e-06 17.1044C1.48799e-06 16.706 0.203127 16.1044 0.398439 15.706C0.601564 15.3075 8.39844 6.51065 16.6016 0.909086C17.2031 0.510649 18 0.510649 18.7969 0.705961C19.3984 1.1044 20 1.70596 20 2.51065L20 9.90908C20 9.90908 37.3984 10.9091 38.2031 11.5106C39.2031 12.706 40 15.1044 40 17.3075C40 19.5106 39.2031 21.706 38.2031 22.5106C37.3984 22.9091 20 24.3075 20 24.3075L20 31.706C20 32.5106 19.6016 33.1044 18.7969 33.5106C18.2031 33.9091 17.3984 33.706 16.6016 33.3075Z" fill="#1EB28F"/>
</svg>
