<svg width="36" height="43" viewBox="0 0 36 43" fill="none" xmlns="http://www.w3.org/2000/svg">
<path d="M21.4704 0.68031C21.0809 0.691663 20.711 0.854173 20.4392 1.13343L0.939165 20.6334C0.657966 20.9147 0.5 21.2962 0.5 21.694C0.5 22.0917 0.657966 22.4732 0.939165 22.7545L20.4392 42.2545C20.5774 42.3985 20.7429 42.5134 20.9261 42.5926C21.1093 42.6718 21.3065 42.7136 21.506 42.7156C21.7056 42.7176 21.9035 42.6798 22.0883 42.6044C22.2731 42.529 22.4409 42.4174 22.582 42.2763C22.7232 42.1352 22.8347 41.9673 22.9101 41.7826C22.9856 41.5978 23.0234 41.3999 23.0213 41.2003C23.0193 41.0007 22.9775 40.8036 22.8983 40.6204C22.8191 40.4372 22.7042 40.2717 22.5603 40.1334L4.1208 21.694L22.5603 3.25453C22.7767 3.04377 22.9244 2.7726 22.9841 2.47649C23.0439 2.18039 23.0128 1.87315 22.895 1.59498C22.7773 1.31681 22.5783 1.08067 22.3241 0.917474C22.0699 0.754274 21.7724 0.671613 21.4704 0.68031ZM33.4704 0.68031C33.0809 0.691663 32.711 0.854173 32.4392 1.13343L12.9392 20.6334C12.658 20.9147 12.5 21.2962 12.5 21.694C12.5 22.0917 12.658 22.4732 12.9392 22.7545L32.4392 42.2545C32.5774 42.3985 32.7429 42.5134 32.9261 42.5926C33.1093 42.6718 33.3065 42.7136 33.506 42.7156C33.7056 42.7176 33.9035 42.6798 34.0883 42.6044C34.2731 42.529 34.4409 42.4174 34.582 42.2763C34.7232 42.1352 34.8347 41.9673 34.9101 41.7826C34.9856 41.5978 35.0234 41.3999 35.0213 41.2003C35.0193 41.0007 34.9775 40.8036 34.8983 40.6204C34.8191 40.4372 34.7042 40.2717 34.5603 40.1334L16.1208 21.694L34.5603 3.25453C34.7767 3.04377 34.9244 2.7726 34.9841 2.47649C35.0439 2.18039 35.0128 1.87315 34.895 1.59498C34.7773 1.31681 34.5783 1.08067 34.3241 0.917474C34.0699 0.754274 33.7724 0.671613 33.4704 0.68031Z" fill="#FEFEFE"/>
</svg>
