<svg width="40" height="34" viewBox="0 0 40 34" fill="none" xmlns="http://www.w3.org/2000/svg">
<path d="M23.3984 0.997163C31.7969 6.59873 39.3984 15.3956 39.6016 15.794C40 16.2003 40 16.5987 40 17.2003C40 17.5987 39.7969 18.2003 39.6016 18.5987C39.3984 18.9972 31.6016 27.794 23.3984 33.3956C22.7969 33.794 22 33.794 21.2031 33.5987C20.6016 33.2003 20 32.5987 20 31.794V24.3956C20 24.3956 2.60156 23.3956 1.79688 22.794C0.796876 21.5987 0 19.2003 0 16.9972C0 14.794 0.796876 12.5987 1.79688 11.794C2.60156 11.3956 20 9.99716 20 9.99716V2.59872C20 1.79404 20.3984 1.20029 21.2031 0.794039C21.7969 0.395601 22.6016 0.598725 23.3984 0.997163Z" fill="#1EB28F"/>
</svg>
